<?xml version="1.0" encoding="UTF-8"?>
<svg id="uuid-fedca18f-5e14-48b4-bf83-91e111e0ce5f" data-name="Calque 2" xmlns="http://www.w3.org/2000/svg" width="226.77" height="141.73" xmlns:xlink="http://www.w3.org/1999/xlink" viewBox="0 0 226.77 141.73">
  <defs>
    <style>
      .uuid-221b066a-12ae-4904-91ea-140423bfd0ba {
        fill: url(#uuid-d42758a4-d22a-44c9-bf2b-58ed94a0ecf9);
      }

      .uuid-221b066a-12ae-4904-91ea-140423bfd0ba, .uuid-74f1e9b4-4cad-4caa-aee9-2420d0b4e11c, .uuid-9b17d05a-4c3d-4623-bbaa-29ee572a06fc, .uuid-7aebfa0e-4f86-4ca6-9c00-f817d13d8c7e, .uuid-e8635cfb-7258-4bc4-a731-ff536a072547, .uuid-8e7799f3-dd4e-4fe6-8bf9-89a5768020ed, .uuid-8aa6bc3d-d4bd-46ee-b1a1-dcc44c8ca5b1, .uuid-4ba89f68-459f-4453-a3eb-ebd2a3e4d8cc, .uuid-671ef68a-e4bd-4f46-afa9-4c9c724dc891, .uuid-4d926fc0-e27a-4db7-ab00-981a4f37010b, .uuid-b2d50ec1-1428-461b-904e-2ab7fcbeb33d {
        stroke-width: 0px;
      }

      .uuid-74f1e9b4-4cad-4caa-aee9-2420d0b4e11c {
        fill: url(#uuid-95ca302d-7495-4346-aed3-8d01096fb5e3);
      }

      .uuid-087c0efe-f803-4a8c-b781-3699296791fc {
        clip-path: url(#uuid-29264ade-0cbf-4088-beba-6ed2b0abfcad);
      }

      .uuid-9b17d05a-4c3d-4623-bbaa-29ee572a06fc {
        fill: url(#uuid-eabf23ba-683b-4f77-88c0-b2d0d5438c70);
      }

      .uuid-7aebfa0e-4f86-4ca6-9c00-f817d13d8c7e, .uuid-e214ff0b-da05-4cee-9fb4-9a2743df76b2 {
        fill: none;
      }

      .uuid-a0221383-0eb0-44ef-9cd3-b49701f9854b {
        clip-path: url(#uuid-700f59e0-7623-4ca4-9426-22d0e7cbee34);
      }

      .uuid-a95b09d3-9fe4-4bc9-a587-6b582295c550 {
        clip-path: url(#uuid-952e5e2e-9057-4dd8-af7e-d132fa898210);
      }

      .uuid-258ce2bf-7661-431d-bbd5-ab4edbd99add {
        clip-path: url(#uuid-8022c943-f8d6-4f2f-ac3e-5ed2d23e795c);
      }

      .uuid-0be40085-397f-4560-972b-ea3dfc2aaea7 {
        mask: url(#uuid-d6d65a98-c893-44a2-9cab-9d575260662f);
      }

      .uuid-b4c9799b-7cb8-4247-8219-60e6e4e7b6d5 {
        clip-path: url(#uuid-84594f9e-2d9d-4f21-ac7c-be37dcc46159);
      }

      .uuid-abba5f14-952a-4c70-82b8-2acc893d85f3 {
        isolation: isolate;
      }

      .uuid-b7519674-c4b5-4ad5-bf82-7112d0f62fc6 {
        clip-path: url(#uuid-e8c53d57-2177-49fc-91e0-5b681a7e3cac);
      }

      .uuid-2a01b1ee-648d-49ee-9147-e021e92258d7 {
        clip-path: url(#uuid-dc546b79-5cdd-40df-a378-57dca6f5de07);
      }

      .uuid-e214ff0b-da05-4cee-9fb4-9a2743df76b2 {
        stroke: #b4ca06;
        stroke-width: .37px;
      }

      .uuid-8e7799f3-dd4e-4fe6-8bf9-89a5768020ed {
        fill: #183a68;
      }

      .uuid-8aa6bc3d-d4bd-46ee-b1a1-dcc44c8ca5b1 {
        fill: #e3061e;
      }

      .uuid-4ba89f68-459f-4453-a3eb-ebd2a3e4d8cc {
        fill: #b4ca06;
      }

      .uuid-671ef68a-e4bd-4f46-afa9-4c9c724dc891 {
        fill: #31b7bc;
      }

      .uuid-4d926fc0-e27a-4db7-ab00-981a4f37010b {
        fill: #00a487;
      }

      .uuid-b2d50ec1-1428-461b-904e-2ab7fcbeb33d {
        fill: #fff;
      }

      .uuid-e8d06012-e0db-40b1-84f1-4f88e0a0151c {
        clip-path: url(#uuid-9f3af01c-8618-4440-8013-be1d20f0909c);
      }
    </style>
    <clipPath id="uuid-84594f9e-2d9d-4f21-ac7c-be37dcc46159">
      <rect class="uuid-7aebfa0e-4f86-4ca6-9c00-f817d13d8c7e" width="226.77" height="141.73"/>
    </clipPath>
    <clipPath id="uuid-dc546b79-5cdd-40df-a378-57dca6f5de07">
      <rect class="uuid-7aebfa0e-4f86-4ca6-9c00-f817d13d8c7e" x="-14.17" y="-14.17" width="255.12" height="170.08"/>
    </clipPath>
    <clipPath id="uuid-9f3af01c-8618-4440-8013-be1d20f0909c">
      <path class="uuid-7aebfa0e-4f86-4ca6-9c00-f817d13d8c7e" d="m63.49,44.45c-.13-.06-.25-.12-.38-.18.46-.03.92-.1,1.4-.2.36.25.74.49,1.15.7-.1,0-.2.01-.3.01-1.18,0-1.86-.32-1.87-.32m-2.15-1.14c.33.28.69.54,1.08.77-1.36-.04-2.12-.47-2.13-.47-.12-.07-.23-.14-.35-.21.04,0,.07,0,.11,0,.42,0,.85-.03,1.29-.1m1.4-.31h0c.11-.06.22-.11.33-.16.37.38.79.74,1.24,1.07-.51.11-1.02.16-1.51.17-.43-.25-.83-.52-1.21-.82.32-.06.64-.12.97-.21h0s.18-.05.18-.05Zm-5.59-.46c-.11-.07-.22-.15-.33-.23.24.02.48.04.75.04.21,0,.43-.01.65-.03.31.3.66.59,1.02.86-1.35-.15-2.09-.63-2.09-.64m2.5-.42h0c.12-.05.23-.09.34-.14.34.4.73.8,1.15,1.17-.37.05-.74.08-1.09.08-.15,0-.29,0-.42-.01-.41-.28-.8-.58-1.14-.91.32-.03.64-.08.97-.14h0s.19-.04.19-.04Zm.53-.21c.57-.22,1.07-.47,1.49-.73.36.49.78,1.01,1.26,1.51-.11.05-.22.1-.34.15h-.04c-.39.12-.78.2-1.15.26-.45-.38-.85-.78-1.22-1.2m-6.07-.68c-.11-.08-.21-.17-.31-.25.42.07.88.11,1.4.11.29.33.6.64.95.93-1.34-.25-2.03-.78-2.04-.79m2.52-.23h0c.12-.04.24-.08.35-.11.31.43.67.85,1.06,1.25-.16,0-.32.01-.47.01-.38,0-.73-.03-1.05-.07-.39-.31-.75-.65-1.07-1,.32,0,.65-.02.99-.06h0s.19-.03.19-.03Zm.54-.17c.59-.18,1.1-.39,1.54-.61.32.52.7,1.07,1.14,1.61-.12.04-.23.08-.35.12h-.04c-.4.09-.79.14-1.17.17-.42-.41-.79-.84-1.12-1.29m-3.47-1.19h0c.12-.03.24-.05.36-.08.28.45.6.9.97,1.33-.57-.01-1.07-.08-1.51-.17-.37-.34-.7-.7-.99-1.07.31.02.64.03.99.01h0s.18-.02.18-.02Zm-2.53.05c-.1-.09-.2-.19-.29-.28.41.1.87.18,1.39.22.26.34.55.68.88,1-1.31-.35-1.96-.94-1.97-.94m7.71.44c.66-.35,1.15-.74,1.51-1.08.24.49.62,1.2,1.16,1.97-.43.26-.92.51-1.5.74-.46-.54-.84-1.1-1.16-1.62m-4.62-.6c.6-.13,1.12-.3,1.58-.5.28.54.61,1.12,1.02,1.69-.12.03-.23.07-.36.1h-.04c-.4.06-.8.08-1.18.08-.39-.44-.73-.9-1.02-1.37m1.76-.57c.68-.3,1.2-.65,1.59-.96.2.51.53,1.24,1.01,2.05-.44.23-.96.44-1.56.62-.41-.58-.76-1.16-1.04-1.71m-5.4.18c-.34-.37-.64-.75-.9-1.14.31.04.64.07.99.09h0s.19,0,.19,0h0c.12-.02.24-.04.36-.05.25.47.53.94.86,1.39-.57-.06-1.06-.16-1.5-.29m-2.25-1.2c-.09-.1-.18-.2-.27-.3.4.13.85.25,1.37.33.24.36.5.72.79,1.06-1.28-.45-1.88-1.08-1.89-1.09m4,1.51c-.35-.47-.66-.96-.91-1.44.61-.09,1.14-.22,1.61-.37.23.56.53,1.16.88,1.76-.12.02-.24.05-.36.07h-.04c-.15.01-.29.01-.44.01-.26,0-.51-.01-.74-.03m.88-1.88c.7-.25,1.25-.55,1.65-.84.16.52.44,1.28.85,2.12-.46.19-.99.37-1.6.5-.37-.61-.67-1.21-.9-1.78m-5.4-.23c-.31-.39-.58-.79-.81-1.21.3.06.61.12.95.16l.22.02h0c.13-.01.24-.02.36-.03.21.49.45.98.75,1.46-.56-.1-1.05-.24-1.47-.4m2.9.55c-.42-.01-.81-.05-1.18-.11-.31-.49-.58-1-.8-1.51.61-.04,1.16-.13,1.64-.25.19.58.44,1.2.75,1.82-.12.02-.24.03-.37.04h-.02s-.03,0-.03,0Zm-5.05-1.92c-.09-.11-.17-.21-.25-.32.39.16.83.31,1.34.43.21.38.44.75.71,1.12-1.24-.55-1.79-1.22-1.8-1.23m12.06,1.9c.52-.45.75-.81.76-.85.3-.47.54-.96.74-1.46.21.96.47,1.9.82,2.79,0,.01.08.2.22.51-.35.34-.85.73-1.52,1.1-.5-.84-.83-1.59-1.02-2.09m-7.16-1.89c.72-.2,1.28-.46,1.71-.71.12.53.34,1.31.68,2.18-.47.16-1.02.29-1.63.38-.32-.63-.57-1.26-.76-1.85m4.47.64c.55-.41.8-.75.83-.79.33-.45.61-.92.84-1.4.14.97.33,1.93.61,2.85,0,.01.06.2.18.52-.38.31-.9.67-1.6.98-.43-.87-.7-1.65-.86-2.16m-7.18-2.39c.15.59.34,1.23.61,1.87-.12,0-.24.01-.37.01h-.04c-.42-.05-.81-.12-1.16-.2-.28-.52-.5-1.04-.68-1.56.03,0,.06,0,.09,0,.58,0,1.1-.05,1.56-.13m-2.65,1.11c-.28-.41-.52-.83-.72-1.26.3.09.62.17.96.24l.19.03h0c.13,0,.24,0,.36,0,.17.5.38,1.01.64,1.51-.55-.14-1.03-.32-1.44-.51m2.84-1.15c.73-.14,1.32-.35,1.76-.57.08.54.24,1.33.52,2.22-.48.12-1.03.21-1.66.25-.27-.65-.48-1.3-.62-1.9m-4.88-.38c-.08-.11-.15-.22-.22-.33.38.19.81.37,1.3.53.18.4.38.78.62,1.17-1.2-.64-1.69-1.35-1.7-1.36m9.29,1.36c.58-.37.86-.69.89-.72.37-.43.68-.87.95-1.33.06.98.18,1.95.39,2.88,0,0,.05.21.14.53-.4.28-.95.6-1.67.85-.36-.9-.57-1.69-.69-2.22m-6.93-1.04c-.41-.08-.79-.18-1.15-.29-.24-.54-.42-1.08-.56-1.61.28.02.56.04.84.04.29,0,.56-.01.82-.04.1.6.25,1.25.46,1.92-.12,0-.24,0-.37-.01h-.04Zm-2.78-.99c-.25-.43-.45-.87-.62-1.32.28.11.58.21.91.3h0s.1.03.1.03l.04-.09v.1s.09.01.09.01h0c.12.01.24.02.36.04.13.51.3,1.03.52,1.55-.54-.18-1-.4-1.39-.62m3.4,1.01c-.22-.67-.38-1.33-.48-1.94.74-.09,1.34-.26,1.8-.44.04.55.13,1.34.35,2.26-.45.08-.96.12-1.52.12h-.15m3.85-.63c.61-.32.91-.62.94-.65.4-.4.74-.82,1.05-1.25-.01.98.03,1.96.17,2.91,0,0,.03.21.1.54-.42.25-.99.52-1.73.72-.29-.93-.44-1.73-.52-2.27m-9.16-2.06c-.07-.12-.13-.23-.19-.35.36.22.78.43,1.26.63.15.41.32.81.53,1.21-1.15-.73-1.59-1.47-1.6-1.49m6.83.23c.63-.28.96-.56.98-.58.43-.36.8-.76,1.14-1.17-.09.97-.11,1.95-.05,2.91,0,0,.01.21.06.55-.44.22-1.03.44-1.78.59-.22-.95-.31-1.76-.35-2.3m-4.45.27h-.01s-.03,0-.03,0c-.41-.11-.78-.24-1.12-.37-.2-.55-.34-1.11-.44-1.65.52.08,1.02.13,1.51.13.05,0,.09,0,.14,0,.06.61.15,1.27.32,1.94-.12-.01-.24-.02-.37-.04m.57.06c-.17-.69-.27-1.36-.33-1.97.75-.03,1.36-.15,1.83-.3,0,.55.03,1.35.17,2.28-.25.02-.51.04-.79.04s-.59-.02-.89-.05m-3.31-1.27c-.21-.45-.38-.9-.52-1.36.27.13.57.25.88.37h0s.1.04.1.04l.12.03c.12.03.24.05.36.07.09.52.22,1.05.4,1.58-.52-.22-.97-.47-1.34-.72m-1.79-1.82c-.06-.12-.12-.24-.17-.37.34.25.74.49,1.2.72.12.42.26.83.44,1.25-1.08-.81-1.47-1.59-1.48-1.6m6.79.75c.66-.23,1-.48,1.02-.5.45-.33.86-.7,1.23-1.08-.16.96-.26,1.94-.28,2.9,0,.01,0,.21.01.55-.46.19-1.06.37-1.82.45-.15-.96-.18-1.78-.17-2.33m-2.23-2.11c-.04.54-.07,1.35,0,2.29-.04,0-.08,0-.12,0-.5,0-1.02-.04-1.55-.13-.12-.7-.17-1.38-.18-2,.1,0,.2.01.29.01.62,0,1.14-.07,1.56-.17m-2.24,2.05h-.01s-.03,0-.03,0c-.4-.14-.76-.3-1.09-.46-.15-.57-.25-1.13-.31-1.68.56.13,1.1.22,1.64.25,0,.61.06,1.28.17,1.97-.12-.02-.24-.04-.37-.07m-2.64-1.41c-.18-.47-.31-.93-.41-1.4.27.15.55.3.86.43h0s.18.07.18.07c.13.04.25.07.38.1.05.53.14,1.07.28,1.61-.51-.26-.93-.54-1.28-.82m20.51-1.93c.18.44.33.88.47,1.32.01.04,1.1,3.66-.05,7.24-.58-3.11-.56-6.32-.41-8.57m-15.44,1.24c.67-.18,1.04-.4,1.06-.42.48-.3.91-.63,1.3-.99-.24.95-.41,1.91-.5,2.87,0,.01-.02.21-.03.56-.47.15-1.09.28-1.85.31-.07-.97-.04-1.79,0-2.33m-6.71-1.27c-.05-.12-.1-.25-.14-.38.33.27.7.55,1.15.81.08.43.2.85.34,1.28-1.02-.89-1.35-1.7-1.35-1.71m4.65-1.01c-.08.54-.17,1.34-.17,2.28-.54-.03-1.09-.12-1.65-.26-.06-.71-.06-1.38-.02-2,.29.03.58.05.86.05.37,0,.7-.03.99-.07m15.69-.1c.14.45.27.9.36,1.35.01.05.82,3.73-.6,7.22-.34-3.15-.07-6.34.24-8.57m12,18.89h0c3.08-1.89,3.48-4.13,3.5-4.23.88-4.86-2.53-9.12-2.56-9.17-1.76-2.21-4.37-4.14-6.76-5.61,2.83,1.31,6.46,3.33,8.81,5.87.04.04,3.7,3.97,3.2,8.8,0,.02-.24,2.31-3.16,4.38l-.03.02c-1.68.91-3.06,1.1-3.93,1.1s-1.39-.19-1.4-.19c-.13-.05-.25-.1-.38-.15.82-.11,1.67-.36,2.53-.74h0s.17-.08.17-.08Zm-30.07-16.92h-.01s-.02-.01-.02-.01c-.39-.17-.73-.35-1.05-.54-.11-.58-.17-1.15-.19-1.7.55.18,1.09.3,1.62.37-.04.61-.04,1.28.02,1.98-.12-.03-.24-.06-.36-.1m21.24,11.16c-.38-.98-.66-2.01-.87-3.06,1.34-3.75.18-7.63.16-7.67-.17-.57-.38-1.13-.62-1.7.04-.58.09-1.08.14-1.49.93,1.34,1.75,2.77,2.29,4.19.02.05,1.96,5.06-.29,9.36,0,0-.18.35-.62.8-.12-.26-.18-.42-.19-.43m5.64,5.36h0c3.22-1.65,3.78-3.86,3.81-3.95,1.24-4.78-1.83-9.29-1.86-9.33-1.56-2.3-3.97-4.4-6.21-6.03.04.02.08.03.12.05,2.68,1.52,6.03,3.76,8.12,6.4.03.04,3.39,4.24,2.53,9.01,0,.02-.41,2.29-3.48,4.13l-.04.02c-.97.44-1.92.7-2.84.78-.45-.21-.88-.46-1.27-.73.32-.08.63-.17.95-.28h0s.18-.07.18-.07Zm-29.4-18.12c-.14-.48-.24-.95-.31-1.42.26.17.53.34.83.5h0s.15.07.15.07c.13.05.26.09.38.13.01.53.06,1.08.16,1.63-.48-.3-.88-.61-1.22-.92m4.93,2.02c0-.97.1-1.79.18-2.32.68-.13,1.06-.32,1.09-.34.5-.26.95-.56,1.38-.88-.31.93-.56,1.88-.71,2.82,0,.01-.04.21-.07.55-.42.1-.94.18-1.57.18-.1,0-.2,0-.29-.01m13.95-3.65c.11.46.2.92.26,1.38,0,.04.53,3.78-1.15,7.15-.1-3.16.41-6.33.89-8.53m7.89,18.86c2.89-1.39,3.56-3.32,3.58-3.4,1.6-4.67-1.12-9.4-1.14-9.45-1.27-2.22-3.27-4.32-5.23-6.04.12.05.25.1.39.15,2.4,1.68,5.13,3.95,6.83,6.46.03.04,3.05,4.49,1.83,9.18,0,.02-.58,2.25-3.79,3.85l-.04.02c-.38.14-.76.24-1.14.33-.47-.34-.91-.71-1.3-1.1m-2.72-3.85c.48-.49.68-.87.7-.9,2.29-4.37.32-9.46.3-9.51-.58-1.51-1.46-3.01-2.44-4.41.03-.26.06-.46.07-.6,1.64,1.75,3.25,3.79,4.24,5.88.02.05,2.34,4.9.42,9.35,0,.02-.51,1.16-2.12,2.21-.56-.79-.94-1.52-1.18-2.01m1.29,2.17c1.65-1.06,2.16-2.23,2.18-2.29,1.95-4.53-.4-9.46-.42-9.51-.98-2.06-2.56-4.08-4.18-5.82.14.05.32.12.53.2,2.06,1.77,4.24,3.99,5.58,6.34.03.05,2.7,4.71,1.13,9.29,0,.02-.68,1.96-3.55,3.32-.5-.51-.92-1.03-1.28-1.53m-1.78-17.59s-.06-.05-.09-.08c.04.02.08.04.11.06.03.02.06.04.1.06-.04-.01-.08-.03-.12-.04m-2.51,13.74c-.3-1-.51-2.05-.64-3.11,1.63-3.64.76-7.59.75-7.64-.13-.58-.29-1.16-.49-1.75.09-.57.17-1.07.25-1.47.5.86.96,1.74,1.34,2.63-.17,2.35-.23,5.91.45,9.33-.21.58-.48,1.15-.83,1.7,0,0-.21.33-.68.75-.1-.27-.15-.43-.15-.44m-22.53-13.77c-.04-.13-.08-.26-.11-.39.3.3.66.6,1.08.9.05.43.13.86.24,1.3-.95-.97-1.21-1.79-1.22-1.81m24.14-.3h-.01c-.1-.11-.19-.21-.29-.31.12.06.24.12.37.18.1.09.21.17.31.26-.24-.09-.37-.13-.38-.14m-21.4,1.51c-.01-.71.04-1.38.13-1.99.47.09.93.13,1.38.13.17,0,.32,0,.47-.02-.13.53-.28,1.32-.35,2.26-.53-.07-1.08-.2-1.63-.38m16.01-2.17c.07.47.13.93.15,1.39,0,.04.24,3.81-1.69,7.05.14-3.16.89-6.28,1.54-8.44m3.7.47c.05-.26.09-.45.12-.59.45.56.9,1.15,1.32,1.75-.04.36-.09.82-.13,1.35-.38-.85-.83-1.7-1.31-2.51m.36-.6c.14.06.31.14.52.24.19.19.38.38.57.58l.1.15c-.02.1-.04.27-.07.5-.36-.51-.74-1-1.12-1.48m.63.08s-.06-.05-.08-.08c.04.02.07.04.11.07.03.02.06.05.09.07-.04-.02-.08-.04-.12-.06m-21.24,2.03h-.01s-.02-.02-.02-.02c-.37-.2-.71-.41-1.01-.62-.06-.58-.08-1.15-.05-1.71.53.22,1.06.38,1.58.49-.09.6-.14,1.27-.13,1.96-.12-.04-.23-.07-.35-.12m17.69,11.47c-.22-1.02-.35-2.08-.4-3.15,1.9-3.5,1.33-7.51,1.32-7.56-.08-.59-.2-1.18-.35-1.78.13-.57.25-1.06.36-1.45.43.89.82,1.81,1.13,2.73-.35,2.33-.68,5.88-.26,9.33-.25.56-.57,1.11-.95,1.64,0,0-.24.31-.73.69-.08-.28-.12-.44-.12-.45m-15.33-10.87c.07-.97.23-1.78.36-2.31.7-.07,1.09-.24,1.11-.25.52-.22.99-.48,1.44-.77-.38.9-.7,1.83-.92,2.76,0,.01-.05.21-.11.54-.29.05-.63.08-1.02.08-.28,0-.56-.02-.85-.05m18.01-3.03h-.01c-.09-.11-.18-.22-.27-.33.11.07.23.14.36.21.1.09.19.19.29.28-.23-.1-.36-.16-.37-.16m-22.76.64c-.11-.49-.17-.97-.2-1.44.24.19.5.38.79.56h0s.15.09.15.09c.12.06.25.11.37.17-.03.53-.02,1.08.03,1.63-.46-.34-.83-.68-1.14-1.01m22.12-1.4s-.05-.06-.08-.09c.03.02.07.05.1.07.03.03.06.05.09.08-.04-.02-.08-.04-.11-.06m-.62-.13c.13.07.3.16.5.28.17.21.35.41.52.62l.09.16c-.02.1-.06.27-.11.49-.32-.53-.66-1.05-1-1.56m-.41.57c.07-.25.13-.45.17-.58.41.59.81,1.21,1.19,1.85-.07.36-.15.81-.24,1.34-.32-.88-.7-1.75-1.12-2.61m-3.66-.75c.04.47.05.94.05,1.4,0,.04-.04,3.82-2.22,6.9.38-3.14,1.36-6.19,2.18-8.3m.12,13.5c-.15-1.04-.19-2.11-.16-3.18,2.16-3.35,1.9-7.39,1.89-7.44-.04-.59-.11-1.19-.22-1.8.17-.56.33-1.03.47-1.42.36.92.68,1.87.92,2.8-.52,2.29-1.13,5.81-.97,9.29-.3.54-.65,1.06-1.08,1.56,0,0-.26.29-.78.63-.06-.28-.08-.45-.08-.46m3.72-13.66h-.01c-.08-.12-.16-.24-.24-.35.11.07.22.15.34.24.09.1.18.2.27.3-.22-.12-.35-.18-.35-.19m-22.6-.32c-.03-.13-.06-.26-.08-.4.28.32.61.65,1.01.98.02.43.06.87.15,1.32-.87-1.04-1.07-1.88-1.08-1.9m2.64,1.43c.05-.71.15-1.38.28-1.99.73.2,1.36.26,1.84.26-.17.52-.38,1.3-.52,2.23-.52-.11-1.06-.28-1.6-.51m19.38-1.91s-.05-.06-.07-.09c.03.03.06.05.1.08.03.03.05.06.08.08-.04-.02-.07-.05-.11-.07m-.61-.17c.12.08.28.18.47.31.16.22.32.44.47.66l.07.17c-.03.1-.08.26-.14.49-.28-.56-.58-1.1-.88-1.63m-.45.54c.09-.25.16-.43.21-.57.36.62.71,1.27,1.04,1.93-.1.35-.21.8-.34,1.32-.25-.9-.56-1.8-.92-2.68m-16.55,2.1c.15-.96.37-1.76.53-2.28.7-.02,1.11-.16,1.13-.17.53-.18,1.03-.41,1.49-.66-.44.87-.83,1.77-1.13,2.68,0,0-.07.2-.15.53-.16.01-.33.02-.51.02-.44,0-.9-.04-1.36-.13m12.96-3.12c0,.48-.02.94-.06,1.4,0,.04-.34,3.81-2.74,6.71.62-3.1,1.83-6.07,2.8-8.11m-15.26,2.34h-.01s-.02-.02-.02-.02c-.36-.23-.67-.46-.96-.69-.02-.59,0-1.16.08-1.71.55.28,1.06.47,1.54.61-.13.6-.23,1.26-.28,1.96-.11-.05-.23-.1-.34-.15m14.35,11.13c-.07-1.04-.03-2.11.08-3.18,2.41-3.17,2.46-7.23,2.46-7.27,0-.59-.02-1.2-.08-1.81.21-.54.41-1,.57-1.38.29.95.54,1.91.7,2.87-.69,2.25-1.57,5.71-1.67,9.19-.33.51-.73,1.01-1.19,1.47,0,0-.28.27-.83.57-.04-.28-.05-.45-.05-.46m4.75-13.34h-.01c-.07-.13-.14-.25-.22-.37.1.08.21.17.32.26.08.11.16.21.25.32-.21-.14-.33-.21-.34-.22m-.52-.85s-.04-.07-.06-.1c.03.03.06.06.09.09.02.03.05.06.07.09-.03-.03-.07-.05-.1-.08m-.59-.22c.12.09.27.21.45.35.14.23.28.46.42.69l.06.18c-.04.1-.1.26-.18.47-.24-.58-.49-1.14-.75-1.69m-.49.5c.11-.24.19-.42.25-.55.31.65.61,1.32.89,2.01-.12.34-.27.78-.44,1.29-.18-.92-.42-1.84-.71-2.74m-19.75.8c-.07-.49-.1-.98-.09-1.45.23.21.47.41.74.62h0s.14.09.14.09c.12.07.24.13.36.19-.07.53-.1,1.07-.09,1.63-.43-.37-.78-.74-1.06-1.09m20.07-1.66h-.01c-.06-.13-.12-.26-.19-.38.1.09.2.18.3.29.08.11.15.23.22.34-.2-.15-.31-.24-.32-.24m-3.82-.43c-.04.47-.09.94-.17,1.39,0,.04-.62,3.77-3.24,6.48.85-3.05,2.29-5.91,3.41-7.87m-1.93,13.36c.01-1.04.13-2.11.32-3.16,2.64-2.98,3-7.02,3-7.06.05-.59.07-1.2.06-1.81.25-.52.49-.97.68-1.33.22.97.39,1.95.49,2.91-.86,2.18-1.99,5.57-2.36,9.03-.37.49-.8.95-1.3,1.38,0,0-.3.25-.87.51-.01-.29-.01-.46-.01-.47m-12.96-11.92c.1-.7.25-1.36.43-1.95.69.24,1.3.36,1.81.4-.2.51-.47,1.26-.69,2.18-.48-.14-1-.34-1.55-.63m18.26-1.9s-.04-.07-.05-.1c.03.03.05.06.08.1.02.03.04.06.06.09-.03-.03-.06-.06-.09-.09m-20.78.27c-.02-.13-.04-.27-.05-.4.26.34.56.69.94,1.05-.01.43,0,.87.05,1.32-.79-1.1-.93-1.96-.93-1.97m20.2-.54c.11.1.25.23.42.38.12.24.25.48.37.72l.05.18c-.05.1-.12.25-.21.46-.19-.59-.4-1.18-.62-1.74m-14.1.54c.54-.14,1.06-.33,1.54-.55-.51.84-.97,1.7-1.33,2.59,0,0-.08.2-.19.52-.01,0-.03,0-.04,0-.47,0-1.08-.06-1.81-.26.22-.95.5-1.72.7-2.22.09,0,.17,0,.25,0,.55,0,.87-.08.88-.09m13.58-.07c.12-.23.22-.41.29-.53.26.67.51,1.36.74,2.07-.15.33-.33.75-.53,1.25-.11-.93-.28-1.87-.5-2.79m-17.66,1.43h-.01s-.02-.02-.02-.02c-.34-.25-.63-.51-.9-.76.02-.59.1-1.15.21-1.69.52.32,1.02.55,1.49.73-.18.58-.33,1.23-.43,1.92-.11-.06-.22-.11-.33-.18m18.05-2.27h0c-.05-.14-.11-.27-.16-.4.09.1.18.2.28.31.06.12.13.24.19.36-.19-.17-.3-.26-.3-.27m-6.72,12.46c.09-1.04.29-2.09.56-3.13,2.86-2.77,3.52-6.77,3.53-6.82.1-.58.16-1.18.19-1.8.29-.5.56-.93.78-1.28.14.98.24,1.97.26,2.94-1.03,2.12-2.41,5.4-3.04,8.83-.41.46-.87.89-1.4,1.27,0,0-.31.23-.91.44,0-.29.02-.46.02-.47m2.94-13.18c-.07.47-.16.93-.27,1.37-.01.04-.91,3.71-3.73,6.21,1.08-2.97,2.73-5.72,4-7.59m3.39-.2l-.04-.11s.05.07.07.1c.02.03.04.07.06.1-.03-.03-.06-.06-.09-.09m-.55-.3c.1.11.23.24.39.41.11.25.21.5.31.75l.03.18c-.05.09-.14.24-.25.44-.15-.6-.31-1.2-.49-1.78m-.56.42c.14-.22.25-.39.33-.51.21.69.41,1.4.58,2.12-.17.32-.39.73-.63,1.21-.04-.93-.14-1.88-.28-2.82m-18.64.93c-.03-.5-.02-.98.02-1.46.21.22.44.45.69.68h0s.13.1.13.1c.12.08.24.16.35.23-.11.52-.18,1.06-.22,1.62-.4-.4-.72-.8-.97-1.17m19.09-1.74h0c-.04-.14-.08-.28-.13-.41.08.1.17.21.25.33.06.12.11.24.17.37-.17-.18-.27-.28-.28-.29m-13.99-.15c.55-.1,1.08-.25,1.58-.43-.57.8-1.09,1.62-1.53,2.48,0,.01-.1.19-.23.51-.51-.03-1.12-.14-1.83-.4.29-.93.63-1.68.87-2.17.24.03.45.04.63.04.32,0,.5-.03.51-.03m6.35,12.06c.17-1.03.45-2.06.8-3.08,3.06-2.55,4.03-6.48,4.04-6.53.14-.57.25-1.17.33-1.78.33-.48.63-.89.87-1.21.07.99.09,1.99.04,2.95-1.19,2.03-2.82,5.2-3.71,8.57-.44.43-.94.82-1.49,1.17,0,0-.33.21-.94.38.03-.29.06-.46.06-.47m-10.03-10.71c.15-.69.36-1.34.58-1.92.68.3,1.28.46,1.78.53-.24.49-.57,1.23-.85,2.13-.47-.18-.97-.42-1.5-.75m13.97-2.2c-.11.46-.23.91-.38,1.35-.01.04-1.19,3.63-4.19,5.91,1.3-2.88,3.16-5.49,4.56-7.26m-16.36.39c-.01-.13-.02-.27-.02-.4.23.36.51.73.85,1.12-.05.43-.07.87-.05,1.32-.71-1.16-.78-2.02-.78-2.04m19.76-.33s-.02-.07-.04-.11c.02.04.04.07.07.1.02.04.03.07.05.11-.03-.03-.05-.07-.08-.1m-.53-.35c.1.11.22.26.36.44.09.25.17.51.26.77l.02.18c-.06.09-.16.23-.28.42-.1-.62-.22-1.22-.35-1.82m-.59.38c.16-.21.28-.37.37-.48.16.7.3,1.43.41,2.16-.2.3-.44.7-.71,1.16.03-.93,0-1.89-.07-2.83m-16.73,1.8h-.01s-.02-.02-.02-.02c-.32-.28-.59-.55-.84-.83.07-.58.19-1.14.33-1.67.5.35.98.63,1.43.84-.22.57-.42,1.21-.57,1.89-.1-.07-.21-.13-.31-.21m17.24-2.57h0c-.03-.15-.06-.28-.1-.42.07.11.15.22.23.35.04.13.09.25.14.38-.16-.19-.25-.3-.26-.31m-8.53,11.3c.25-1.02.61-2.03,1.03-3.01,3.25-2.31,4.51-6.16,4.52-6.2.19-.56.34-1.15.47-1.75.37-.45.69-.84.96-1.14,0,.99-.06,1.99-.19,2.95-1.34,1.94-3.21,4.97-4.35,8.26-.47.39-1,.75-1.58,1.05,0,0-.35.18-.96.3.05-.28.09-.45.09-.46m8.29-12.26s-.02-.08-.03-.11c.02.04.04.07.06.11.01.03.03.07.04.11-.02-.04-.05-.07-.07-.11m-18.92,1.25c0-.5.05-.98.13-1.45.19.24.4.48.64.73h0s.07.07.07.07l.05.04c.11.09.22.17.33.26-.15.51-.26,1.04-.34,1.6-.37-.43-.66-.85-.88-1.24m15.54-1.56c-.14.45-.3.89-.47,1.32-.02.04-1.46,3.53-4.62,5.57,1.52-2.77,3.57-5.24,5.1-6.89m2.88-.07c.08.12.19.28.32.47.07.26.13.52.19.79v.18c-.06.08-.17.22-.31.4-.06-.62-.13-1.24-.21-1.84m-.62.33c.17-.2.31-.35.41-.45.1.71.19,1.44.25,2.18-.22.29-.49.66-.8,1.1.1-.93.15-1.88.15-2.83m-12.58-.2c.56-.06,1.09-.16,1.6-.31-.63.75-1.21,1.54-1.71,2.35,0,0-.11.18-.27.49-.49-.07-1.1-.22-1.8-.53.36-.91.76-1.63,1.04-2.1.42.09.74.1.92.1.14,0,.21,0,.21,0m-3.78,1.07c.2-.68.46-1.31.72-1.87.66.35,1.25.55,1.73.67-.28.47-.66,1.18-1.01,2.06-.45-.21-.93-.49-1.44-.86m16.93-1.6h0c-.02-.15-.04-.29-.07-.43.06.12.13.24.2.36.04.13.07.26.11.39-.14-.2-.23-.32-.24-.33m-19.17-.39c0-.13,0-.27,0-.4.2.37.45.77.76,1.18-.08.43-.13.87-.16,1.32-.61-1.21-.62-2.08-.62-2.09m9.8,11.01c.33-.99.76-1.97,1.26-2.92,3.41-2.05,4.96-5.8,4.98-5.84.23-.54.42-1.12.6-1.71.4-.42.75-.78,1.04-1.07-.08.99-.21,1.98-.41,2.93-1.48,1.83-3.57,4.72-4.96,7.91-.5.35-1.05.67-1.66.93,0,0-.36.15-.98.23.07-.28.13-.45.13-.46m9.2-11.6s-.01-.08-.02-.11c.02.04.03.08.05.12.01.04.02.07.03.11-.02-.04-.04-.08-.06-.11m-17.22,2.23h0s-.02-.03-.02-.03c-.3-.3-.55-.6-.78-.89.11-.57.27-1.12.46-1.64.47.39.93.7,1.36.94-.26.55-.51,1.17-.72,1.85-.1-.07-.2-.15-.3-.23m16.75-2.65c.08.13.17.29.29.49.05.27.09.53.13.81v.18c-.08.08-.2.2-.35.37,0-.62-.03-1.24-.07-1.85m-.64.28c.19-.18.34-.32.44-.42.05.72.08,1.46.08,2.2-.24.27-.54.62-.88,1.03.17-.92.29-1.86.36-2.81m-2.24-.43c-.18.44-.37.87-.57,1.28-.02.04-1.73,3.41-5.03,5.21,1.72-2.65,3.95-4.95,5.61-6.48m2.86-.25h0c-.01-.15-.02-.29-.03-.43.05.12.11.25.17.38.03.13.05.26.08.4-.13-.21-.2-.33-.21-.34m-13.15-.47c.56-.01,1.1-.08,1.62-.19-.69.7-1.33,1.44-1.88,2.22,0,.01-.12.17-.3.46-.48-.11-1.08-.31-1.75-.67.43-.88.88-1.57,1.19-2.01.59.17,1,.18,1.09.18h.03Zm-5.33,1.1c.04-.49.13-.98.24-1.44.17.25.36.51.58.77h0s.06.07.06.07l.05.04c.11.1.21.19.32.28-.19.49-.34,1.02-.46,1.57-.33-.46-.59-.9-.79-1.3m8.33,9.24c.4-.97.91-1.91,1.48-2.82,3.56-1.79,5.39-5.4,5.41-5.44.27-.53.51-1.08.73-1.66.43-.39.81-.72,1.12-.98-.16.98-.36,1.95-.63,2.88-1.61,1.71-3.92,4.43-5.55,7.51-.53.31-1.1.59-1.72.8,0,0-.37.13-1,.15.09-.27.16-.43.16-.44m10.05-10.86s0-.08-.01-.12c.01.04.03.08.04.12,0,.04.02.08.03.11-.02-.04-.04-.08-.06-.12m-.44-.46c.07.13.15.3.25.51.03.27.05.54.07.82l-.02.18c-.08.07-.2.19-.37.35.04-.62.06-1.24.07-1.85m-16.47,1.76c.25-.67.56-1.27.86-1.81.63.4,1.2.65,1.67.8-.31.45-.75,1.13-1.16,1.97-.43-.25-.89-.56-1.37-.96m15.81-1.52c.2-.17.36-.29.47-.38,0,.72-.03,1.46-.09,2.19-.26.25-.59.58-.96.97.24-.9.43-1.84.57-2.78m-2.2-.6c-.21.42-.43.84-.67,1.23-.02.04-1.98,3.26-5.42,4.81,1.92-2.51,4.32-4.63,6.08-6.04m-15.7-.03c0-.13.02-.27.04-.4.17.39.39.8.67,1.23-.11.42-.2.85-.25,1.3-.52-1.25-.46-2.12-.46-2.13m18.56,0h0c0-.15,0-.29,0-.43.05.12.09.25.14.39.02.13.03.27.05.4-.11-.22-.18-.35-.18-.36m-16.91,1.78h-.01s-.02-.03-.02-.03c-.27-.32-.5-.64-.71-.95.16-.56.36-1.1.58-1.6.44.43.87.77,1.28,1.05-.3.53-.6,1.13-.85,1.78-.09-.08-.19-.16-.28-.25m16.89-2.77s0-.08,0-.12c.01.04.02.08.03.12,0,.04,0,.07.02.11-.02-.04-.03-.08-.05-.12m-11.05,10.5c.12-.27.19-.42.2-.43.47-.93,1.05-1.83,1.69-2.69,3.68-1.51,5.78-4.98,5.81-5.02.31-.5.59-1.04.85-1.6.46-.36.87-.66,1.2-.9-.23.97-.51,1.92-.85,2.83-1.74,1.58-4.25,4.12-6.1,7.06-.55.27-1.14.5-1.77.66,0,0-.31.08-.83.08-.06,0-.11,0-.17,0m10.65-10.99c.06.14.13.31.21.53,0,.27.01.54.01.82l-.04.18c-.08.06-.22.17-.39.32.09-.62.16-1.23.21-1.84m-.67.18c.21-.15.38-.26.5-.34-.06.72-.14,1.45-.25,2.18-.28.23-.63.53-1.03.89.31-.88.57-1.8.78-2.73m-14.43,1.48c.49-.84.99-1.49,1.34-1.91.64.23,1.07.26,1.11.26.16,0,.33.01.49.01.39,0,.77-.04,1.15-.08-.74.65-1.44,1.34-2.05,2.07,0,0-.14.16-.34.44-.47-.14-1.05-.39-1.69-.8m12.28-2.25c-.24.41-.49.8-.76,1.17-.03.04-2.22,3.11-5.77,4.38,2.1-2.36,4.66-4.29,6.53-5.56m-15.22,1.29c.08-.49.2-.96.35-1.41.15.26.32.53.52.81h0s.06.08.06.08l.04.05c.1.11.2.2.3.3-.22.48-.42.99-.58,1.53-.3-.48-.52-.94-.69-1.36m18.09-1.11h0c0-.15.02-.29.03-.43.04.12.08.26.12.4,0,.13.01.27.02.4-.09-.23-.15-.36-.15-.37m-16.6.9c.3-.64.65-1.22.99-1.74.6.45,1.15.74,1.61.93-.35.42-.83,1.06-1.31,1.88-.41-.28-.85-.63-1.29-1.06m16.65-1.89s0-.08,0-.12c0,.04.01.08.02.12,0,.04,0,.08,0,.12-.01-.04-.03-.08-.04-.12m-11.81,9.63c.13-.26.22-.41.23-.41.54-.89,1.19-1.75,1.89-2.56,3.79-1.23,6.15-4.52,6.17-4.56.34-.48.67-.99.97-1.53.48-.32.91-.59,1.26-.8-.3.95-.65,1.88-1.06,2.76-1.86,1.45-4.55,3.79-6.62,6.58-.57.23-1.18.41-1.82.53,0,0-.17.03-.47.03-.15,0-.33,0-.54-.03m11.45-10.14c.05.14.1.32.17.54-.01.27-.03.54-.05.82l-.05.17c-.09.06-.23.15-.42.29.14-.61.25-1.22.35-1.82m-.69.13c.22-.13.4-.24.52-.31-.11.71-.25,1.44-.42,2.16-.3.21-.67.48-1.1.81.38-.85.71-1.75.99-2.66m-17.52-.03c.02-.13.04-.26.07-.39.14.4.33.83.58,1.28-.14.41-.26.83-.35,1.28-.42-1.29-.3-2.15-.29-2.16m1.51,1.89h0s-.02-.03-.02-.03c-.25-.34-.45-.68-.63-1,.2-.55.44-1.07.7-1.55.41.46.81.83,1.2,1.14-.34.51-.68,1.08-.98,1.71-.09-.09-.17-.17-.26-.27m13.92-2.79c-.27.39-.55.76-.85,1.11-.03.03-2.45,2.93-6.08,3.93,2.28-2.19,4.97-3.92,6.93-5.04m2.84.4h0c.02-.15.04-.29.06-.43.03.13.06.26.08.41,0,.13,0,.27-.02.41-.08-.24-.12-.37-.13-.38m-15.25.91c.55-.8,1.1-1.41,1.48-1.8.62.28,1.05.34,1.09.34.39.05.79.08,1.19.08h0c.15,0,.3-.01.45-.02-.79.59-1.53,1.22-2.2,1.91,0,0-.15.15-.37.41-.46-.18-1.02-.47-1.63-.93m15.39-1.89s0-.08.02-.12c0,.04,0,.08.01.12v.11s-.02-.08-.03-.12m-12.51,8.7c.15-.24.25-.38.26-.39.61-.85,1.32-1.65,2.08-2.41,3.87-.93,6.47-4.04,6.5-4.08.38-.45.74-.94,1.08-1.45.51-.28.96-.52,1.32-.71-.37.92-.8,1.82-1.27,2.67-1.96,1.3-4.82,3.43-7.1,6.05-.59.19-1.21.32-1.86.39,0,0-.07,0-.19,0-.16,0-.44-.01-.82-.09m12.19-9.24c.03.14.08.33.13.56-.03.27-.07.54-.11.81l-.06.17c-.09.05-.24.14-.44.25.18-.6.34-1.19.49-1.79m-17.93,1.26c.12-.48.28-.95.46-1.38.13.27.28.55.45.85h0s.06.09.06.09l.04.05c.09.11.18.22.27.32-.26.46-.49.96-.69,1.48-.26-.5-.45-.98-.58-1.41m17.24-1.18c.23-.12.42-.21.54-.26-.17.7-.36,1.41-.58,2.12-.31.19-.7.43-1.15.72.44-.82.84-1.69,1.19-2.58m-15.73,1.08c.35-.62.74-1.17,1.12-1.65.56.49,1.09.82,1.53,1.04-.38.39-.91,1-1.44,1.77-.39-.31-.8-.69-1.21-1.16m16.53-1.55h0c.03-.15.06-.28.1-.42.02.13.03.27.05.41-.01.13-.03.27-.04.4-.06-.24-.09-.38-.1-.39m-2.8-.61c-.3.37-.61.72-.93,1.04-.03.03-2.67,2.73-6.36,3.46,2.44-2.01,5.25-3.54,7.29-4.5m2.75-.03c-.03.15-.07.31-.1.47l-.08.16c-.09.04-.25.12-.46.22.11-.28.22-.57.32-.85h-.2c-.12.32-.24.65-.37.98-.32.16-.73.38-1.21.64.33-.52.65-1.06.94-1.61h-.22c-.33.62-.69,1.23-1.08,1.81-2.05,1.15-5.07,3.05-7.54,5.49-.6.14-1.23.23-1.88.24l-.02.1v-.1c-.09,0-.45,0-.98-.15.17-.23.28-.37.29-.37.67-.8,1.44-1.55,2.26-2.25,3.93-.64,6.76-3.53,6.79-3.57.37-.38.73-.78,1.07-1.21h-.65c-2.09,1.01-4.89,2.56-7.28,4.59-.46.07-.93.12-1.42.12-.16,0-.32,0-.48-.01,0,0-.39-.02-.98-.23.19-.22.31-.34.31-.35.73-.75,1.55-1.43,2.41-2.06,2.38-.2,4.44-1.25,5.7-2.06h-.37c-1.19.73-2.97,1.59-5.02,1.83.97-.68,1.99-1.29,2.99-1.83h-.4c-1.01.55-2.02,1.18-2.98,1.87-.24.02-.48.03-.72.03-.39,0-.78-.03-1.17-.08,0,0-.39-.05-.96-.31.21-.2.33-.32.34-.32.48-.43,1-.82,1.54-1.2h-.33c-.46.33-.91.68-1.33,1.05,0,0-.16.14-.4.38-.44-.21-.98-.55-1.55-1.05.11-.14.22-.27.33-.39h-.25c-.07.08-.15.17-.22.26-.09-.08-.18-.17-.27-.26h-.27c.14.15.28.29.42.41-.38.48-.76,1.02-1.11,1.63-.08-.09-.16-.18-.24-.29h0s-.01-.03-.01-.03c-.22-.36-.4-.71-.56-1.04.11-.23.22-.46.33-.68h-.22c-.08.14-.15.29-.22.44-.06-.15-.12-.3-.18-.44h-.21c.08.22.17.45.28.68-.18.4-.33.81-.45,1.24-.22-.9-.2-1.59-.17-1.93h-.19c-.05.41-.06,1.23.26,2.31-.06.24-.1.47-.14.72-.01.06-.17,1.09.41,2.58-.04.24-.07.48-.09.73,0,.07-.08,1.1.61,2.54-.02.24-.03.48-.03.73,0,.07,0,1.1.8,2.49,0,.24,0,.49.02.73,0,.06.08,1.09.99,2.42.02.24.04.48.08.73,0,.06.17,1.09,1.17,2.34.04.24.08.48.13.72.01.06.25,1.07,1.34,2.24.05.24.11.47.19.71.02.06.33,1.05,1.51,2.14.07.23.15.46.24.69.02.06.41,1.02,1.67,2.01.09.23.19.45.3.67.03.06.49.99,1.81,1.88.1.22.22.44.35.65.03.06.56.94,1.95,1.74.12.21.25.42.39.62.04.05.63.9,2.08,1.58.14.2.28.4.44.59.04.05.7.85,2.19,1.42.15.19.31.37.48.55.04.04.76.79,2.29,1.25.17.18.34.35.53.52.04.04.81.73,2.39,1.07.18.16.36.32.56.47.04.03.86.67,2.46.89.19.15.39.29.6.43.04.03.9.6,2.52.7.2.13.41.27.63.39.04.02.9.51,2.46.51.03,0,.07,0,.1,0,.21.12.43.24.66.34.03.01.72.34,1.95.34.21,0,.43-.01.64-.03.22.1.45.2.68.29.02,0,.55.21,1.47.21s2.28-.19,3.97-1.1h.01s.16-.1.16-.1h0c2.93-2.12,3.16-4.38,3.17-4.48.5-4.91-3.22-8.91-3.25-8.94-2.82-3.04-7.46-5.34-10.38-6.58-.59-.34-1.15-.64-1.66-.9-.57-.38-1.1-.72-1.59-1.02-.53-.42-1.04-.81-1.5-1.14-.5-.46-.98-.88-1.42-1.26-.47-.5-.91-.95-1.31-1.36-.43-.53-.83-1.02-1.21-1.45-.38-.56-.75-1.08-1.09-1.54-.34-.59-.67-1.14-.97-1.62-.3-.62-.58-1.18-.85-1.69-.25-.64-.49-1.22-.72-1.75-.2-.65-.39-1.26-.58-1.8-.15-.67-.3-1.28-.44-1.84-.1-.68-.2-1.3-.3-1.87-.04-.68-.1-1.31-.16-1.88,0-.56,0-1.09,0-1.58h-.49Z"/>
    </clipPath>
    <linearGradient id="uuid-95ca302d-7495-4346-aed3-8d01096fb5e3" data-name="Dégradé sans nom 2" x1="-14.17" y1="155.91" x2="-13.17" y2="155.91" gradientTransform="translate(12405.49 -1040.02) rotate(-90) scale(79.23 -79.23)" gradientUnits="userSpaceOnUse">
      <stop offset="0" stop-color="#183a68"/>
      <stop offset=".15" stop-color="#19406c"/>
      <stop offset=".34" stop-color="#1c5177"/>
      <stop offset=".57" stop-color="#226e8a"/>
      <stop offset=".82" stop-color="#2a95a5"/>
      <stop offset="1" stop-color="#31b7bc"/>
    </linearGradient>
    <clipPath id="uuid-952e5e2e-9057-4dd8-af7e-d132fa898210">
      <path class="uuid-7aebfa0e-4f86-4ca6-9c00-f817d13d8c7e" d="m63.49,44.45c-.13-.06-.25-.12-.38-.18.46-.03.92-.1,1.4-.2.36.25.74.49,1.15.7-.1,0-.2.01-.3.01-1.18,0-1.86-.32-1.87-.32m-2.15-1.14c.33.28.69.54,1.08.77-1.36-.04-2.12-.47-2.13-.47-.12-.07-.23-.14-.35-.21.04,0,.07,0,.11,0,.42,0,.85-.03,1.29-.1m1.4-.31h0c.11-.06.22-.11.33-.16.37.38.79.74,1.24,1.07-.51.11-1.02.16-1.51.17-.43-.25-.83-.52-1.21-.82.32-.06.64-.12.97-.21h0s.18-.05.18-.05Zm-5.59-.46c-.11-.07-.22-.15-.33-.23.24.02.48.04.75.04.21,0,.43-.01.65-.03.31.3.66.59,1.02.86-1.35-.15-2.09-.63-2.09-.64m2.5-.42h0c.12-.05.23-.09.34-.14.34.4.73.8,1.15,1.17-.37.05-.74.08-1.09.08-.15,0-.29,0-.42-.01-.41-.28-.8-.58-1.14-.91.32-.03.64-.08.97-.14h0s.19-.04.19-.04Zm.53-.21c.57-.22,1.07-.47,1.49-.73.36.49.78,1.01,1.26,1.51-.11.05-.22.1-.34.15h-.04c-.39.12-.78.2-1.15.26-.45-.38-.85-.78-1.22-1.2m-6.07-.68c-.11-.08-.21-.17-.31-.25.42.07.88.11,1.4.11.29.33.6.64.95.93-1.34-.25-2.03-.78-2.04-.79m2.52-.23h0c.12-.04.24-.08.35-.11.31.43.67.85,1.06,1.25-.16,0-.32.01-.47.01-.38,0-.73-.03-1.05-.07-.39-.31-.75-.65-1.07-1,.32,0,.65-.02.99-.06h0s.19-.03.19-.03Zm.54-.17c.59-.18,1.1-.39,1.54-.61.32.52.7,1.07,1.14,1.61-.12.04-.23.08-.35.12h-.04c-.4.09-.79.14-1.17.17-.42-.41-.79-.84-1.12-1.29m-3.47-1.19h0c.12-.03.24-.05.36-.08.28.45.6.9.97,1.33-.57-.01-1.07-.08-1.51-.17-.37-.34-.7-.7-.99-1.07.31.02.64.03.99.01h0s.18-.02.18-.02Zm-2.53.05c-.1-.09-.2-.19-.29-.28.41.1.87.18,1.39.22.26.34.55.68.88,1-1.31-.35-1.96-.94-1.97-.94m7.71.44c.66-.35,1.15-.74,1.51-1.08.24.49.62,1.2,1.16,1.97-.43.26-.92.51-1.5.74-.46-.54-.84-1.1-1.16-1.62m-4.62-.6c.6-.13,1.12-.3,1.58-.5.28.54.61,1.12,1.02,1.69-.12.03-.23.07-.36.1h-.04c-.4.06-.8.08-1.18.08-.39-.44-.73-.9-1.02-1.37m1.76-.57c.68-.3,1.2-.65,1.59-.96.2.51.53,1.24,1.01,2.05-.44.23-.96.44-1.56.62-.41-.58-.76-1.16-1.04-1.71m-5.4.18c-.34-.37-.64-.75-.9-1.14.31.04.64.07.99.09h0s.19,0,.19,0h0c.12-.02.24-.04.36-.05.25.47.53.94.86,1.39-.57-.06-1.06-.16-1.5-.29m-2.25-1.2c-.09-.1-.18-.2-.27-.3.4.13.85.25,1.37.33.24.36.5.72.79,1.06-1.28-.45-1.88-1.08-1.89-1.09m4,1.51c-.35-.47-.66-.96-.91-1.44.61-.09,1.14-.22,1.61-.37.23.56.53,1.16.88,1.76-.12.02-.24.05-.36.07h-.04c-.15.01-.29.01-.44.01-.26,0-.51-.01-.74-.03m.88-1.88c.7-.25,1.25-.55,1.65-.84.16.52.44,1.28.85,2.12-.46.19-.99.37-1.6.5-.37-.61-.67-1.21-.9-1.78m-5.4-.23c-.31-.39-.58-.79-.81-1.21.3.06.61.12.95.16l.22.02h0c.13-.01.24-.02.36-.03.21.49.45.98.75,1.46-.56-.1-1.05-.24-1.47-.4m2.9.55c-.42-.01-.81-.05-1.18-.11-.31-.49-.58-1-.8-1.51.61-.04,1.16-.13,1.64-.25.19.58.44,1.2.75,1.82-.12.02-.24.03-.37.04h-.02s-.03,0-.03,0Zm-5.05-1.92c-.09-.11-.17-.21-.25-.32.39.16.83.31,1.34.43.21.38.44.75.71,1.12-1.24-.55-1.79-1.22-1.8-1.23m12.06,1.9c.52-.45.75-.81.76-.85.3-.47.54-.96.74-1.46.21.96.47,1.9.82,2.79,0,.01.08.2.22.51-.35.34-.85.73-1.52,1.1-.5-.83-.83-1.59-1.02-2.09m-7.16-1.89c.72-.2,1.28-.46,1.71-.71.12.53.34,1.31.68,2.18-.47.16-1.02.29-1.63.38-.32-.63-.57-1.26-.76-1.85m4.47.64c.55-.41.8-.75.83-.79.33-.45.61-.92.84-1.4.14.97.33,1.93.61,2.85,0,.01.06.2.18.52-.38.31-.9.67-1.6.98-.43-.87-.7-1.65-.86-2.16m-7.18-2.39c.15.59.34,1.23.61,1.87-.12,0-.24.01-.37.01h-.04c-.42-.05-.81-.12-1.16-.2-.28-.52-.5-1.04-.68-1.56.03,0,.06,0,.09,0,.58,0,1.1-.05,1.56-.13m-2.65,1.11c-.28-.41-.52-.83-.72-1.26.3.09.62.17.96.24l.19.03h0c.13,0,.24,0,.36,0,.17.5.38,1.01.64,1.51-.55-.14-1.03-.32-1.44-.51m2.84-1.15c.73-.14,1.32-.35,1.76-.57.08.54.24,1.33.52,2.22-.48.12-1.03.21-1.66.25-.27-.65-.48-1.3-.62-1.9m-4.88-.38c-.08-.11-.15-.22-.22-.33.38.19.81.37,1.3.53.18.4.38.78.62,1.17-1.2-.64-1.69-1.35-1.7-1.36m9.29,1.36c.58-.37.86-.69.89-.72.37-.43.68-.87.95-1.33.06.98.18,1.95.39,2.88,0,0,.05.21.14.53-.4.28-.95.6-1.67.85-.36-.9-.57-1.69-.69-2.22m-6.93-1.04c-.41-.08-.79-.18-1.15-.29-.24-.54-.42-1.08-.56-1.61.28.02.56.04.84.04.29,0,.56-.01.82-.04.1.6.25,1.25.46,1.92-.12,0-.24,0-.37-.01h-.04Zm-2.78-.99c-.25-.43-.45-.87-.62-1.32.28.11.58.21.91.3h0s.1.03.1.03l.04-.09v.1s.09.01.09.01h0c.12.01.24.02.36.04.13.51.3,1.03.52,1.55-.54-.18-1-.4-1.39-.62m3.4,1.01c-.22-.67-.38-1.33-.48-1.94.74-.09,1.34-.26,1.8-.44.04.55.13,1.34.35,2.26-.45.08-.96.12-1.52.12h-.15m3.85-.63c.61-.32.91-.62.94-.65.4-.4.74-.82,1.05-1.25-.01.98.03,1.96.17,2.91,0,0,.03.21.1.54-.42.25-.99.52-1.73.72-.29-.93-.44-1.73-.52-2.27m-9.16-2.06c-.07-.12-.13-.23-.19-.35.36.22.78.43,1.26.63.15.41.32.81.53,1.21-1.15-.73-1.59-1.47-1.6-1.49m6.83.23c.63-.28.96-.56.98-.58.43-.36.8-.76,1.14-1.17-.09.97-.11,1.95-.05,2.91,0,0,.01.21.06.55-.44.22-1.03.44-1.78.59-.22-.95-.31-1.76-.35-2.3m-4.45.27h-.01s-.03,0-.03,0c-.41-.11-.78-.24-1.12-.37-.2-.55-.34-1.11-.44-1.65.52.08,1.02.13,1.51.13.05,0,.09,0,.14,0,.06.61.15,1.27.32,1.94-.12-.01-.24-.02-.37-.04m.57.06c-.17-.69-.27-1.36-.33-1.97.75-.03,1.36-.15,1.83-.3,0,.55.03,1.35.17,2.28-.25.02-.51.04-.79.04s-.59-.02-.89-.05m-3.31-1.27c-.21-.45-.38-.9-.52-1.36.27.13.57.25.88.37h0s.1.04.1.04l.12.03c.12.03.24.05.36.07.09.52.22,1.05.4,1.58-.52-.22-.97-.47-1.34-.72m-1.79-1.82c-.06-.12-.12-.24-.17-.37.34.25.74.49,1.2.72.12.42.26.83.44,1.25-1.08-.81-1.47-1.59-1.48-1.6m6.79.75c.66-.23,1-.48,1.02-.5.45-.33.86-.7,1.23-1.08-.16.96-.26,1.94-.28,2.9,0,.01,0,.21.01.55-.46.19-1.06.37-1.82.45-.15-.96-.18-1.78-.17-2.33m-2.23-2.11c-.04.54-.07,1.35,0,2.29-.04,0-.08,0-.12,0-.5,0-1.02-.04-1.55-.13-.12-.7-.17-1.38-.18-2,.1,0,.2.01.29.01.62,0,1.14-.07,1.56-.17m-2.24,2.05h-.01s-.03,0-.03,0c-.4-.14-.76-.3-1.09-.46-.15-.57-.25-1.13-.31-1.68.56.13,1.1.22,1.64.25,0,.61.06,1.28.17,1.97-.12-.02-.24-.04-.37-.07m-2.64-1.41c-.18-.47-.31-.93-.41-1.4.27.15.55.3.86.43h0s.18.07.18.07c.13.04.25.07.38.1.05.53.14,1.07.28,1.61-.51-.26-.93-.54-1.28-.82m20.51-1.93c.18.44.33.88.47,1.32.01.04,1.1,3.66-.05,7.24-.58-3.11-.56-6.32-.41-8.57m-15.44,1.24c.67-.18,1.04-.4,1.06-.42.48-.3.91-.63,1.3-.99-.24.95-.41,1.91-.5,2.87,0,.01-.02.21-.03.56-.47.15-1.09.28-1.85.31-.07-.97-.04-1.79,0-2.33m-6.71-1.26c-.05-.12-.1-.25-.14-.38.33.27.7.55,1.15.81.08.43.2.85.34,1.28-1.02-.89-1.35-1.7-1.35-1.71m4.65-1.01c-.08.54-.17,1.34-.17,2.28-.54-.03-1.09-.12-1.65-.26-.06-.71-.06-1.38-.02-2,.29.03.58.05.86.05.37,0,.7-.03.99-.07m15.69-.1c.14.45.27.9.36,1.35.01.05.82,3.73-.6,7.22-.34-3.15-.07-6.34.24-8.57m12,18.89h0c3.08-1.89,3.48-4.13,3.5-4.23.88-4.86-2.53-9.12-2.56-9.17-1.76-2.21-4.37-4.14-6.76-5.61,2.83,1.31,6.46,3.33,8.81,5.87.04.04,3.7,3.97,3.2,8.8,0,.02-.24,2.31-3.16,4.38l-.03.02c-1.68.91-3.06,1.1-3.93,1.1s-1.39-.19-1.4-.19c-.13-.05-.25-.1-.38-.15.82-.11,1.67-.36,2.53-.74h0s.17-.08.17-.08Zm-30.07-16.92h-.01s-.02-.01-.02-.01c-.39-.17-.73-.35-1.05-.54-.11-.58-.17-1.15-.19-1.7.55.18,1.09.3,1.62.37-.04.61-.04,1.28.02,1.98-.12-.03-.24-.06-.36-.1m21.24,11.16c-.38-.98-.66-2.01-.87-3.06,1.34-3.75.18-7.63.16-7.67-.17-.57-.38-1.13-.62-1.7.04-.58.09-1.08.14-1.49.93,1.34,1.75,2.77,2.29,4.19.02.05,1.96,5.06-.29,9.36,0,0-.18.35-.62.8-.12-.26-.18-.42-.19-.43m5.64,5.36h0c3.22-1.65,3.78-3.86,3.81-3.95,1.24-4.78-1.83-9.29-1.86-9.33-1.56-2.3-3.97-4.4-6.21-6.03.04.02.08.03.12.05,2.68,1.52,6.03,3.76,8.12,6.4.03.04,3.39,4.24,2.53,9.01,0,.02-.41,2.29-3.48,4.13l-.04.02c-.97.44-1.92.7-2.84.79-.45-.21-.88-.46-1.27-.73.32-.08.63-.17.95-.28h0s.18-.07.18-.07Zm-29.4-18.12c-.14-.48-.24-.95-.31-1.42.26.17.53.34.83.5h0s.15.07.15.07c.13.05.26.09.38.13.01.53.06,1.08.16,1.63-.48-.3-.88-.61-1.22-.92m4.93,2.02c0-.97.1-1.79.18-2.32.68-.13,1.06-.32,1.09-.34.5-.26.95-.56,1.38-.88-.31.93-.56,1.88-.71,2.82,0,.01-.04.21-.07.55-.42.1-.94.18-1.57.18-.1,0-.2,0-.29-.01m13.95-3.65c.11.46.2.92.26,1.38,0,.04.53,3.78-1.15,7.15-.1-3.16.41-6.33.89-8.53m7.89,18.86c2.89-1.39,3.56-3.32,3.58-3.4,1.6-4.67-1.12-9.4-1.14-9.45-1.27-2.22-3.27-4.32-5.23-6.04.12.05.25.1.39.15,2.4,1.68,5.13,3.95,6.83,6.46.03.04,3.05,4.49,1.83,9.18,0,.02-.58,2.25-3.79,3.85h-.04c-.38.15-.76.26-1.14.35-.47-.34-.91-.71-1.3-1.1m-2.72-3.85c.48-.49.68-.87.7-.9,2.29-4.37.32-9.46.3-9.51-.58-1.51-1.46-3.01-2.44-4.41.03-.26.06-.46.07-.6,1.64,1.75,3.25,3.79,4.24,5.88.02.05,2.34,4.9.42,9.35,0,.02-.51,1.16-2.12,2.21-.56-.79-.94-1.52-1.18-2.01m1.29,2.17c1.65-1.06,2.16-2.23,2.18-2.29,1.95-4.53-.4-9.46-.42-9.51-.98-2.06-2.56-4.08-4.18-5.82.14.05.32.12.53.2,2.06,1.77,4.24,3.99,5.58,6.34.03.05,2.7,4.71,1.13,9.29,0,.02-.68,1.96-3.55,3.32-.5-.51-.92-1.03-1.28-1.53m-1.78-17.59s-.06-.05-.09-.08c.04.02.08.04.11.06.03.02.06.04.1.06-.04-.01-.08-.03-.12-.04m-2.51,13.74c-.3-1-.51-2.05-.64-3.11,1.63-3.64.76-7.59.75-7.64-.13-.58-.29-1.16-.49-1.75.09-.57.17-1.07.25-1.47.5.86.96,1.74,1.34,2.63-.17,2.35-.23,5.91.45,9.33-.21.58-.48,1.15-.83,1.7,0,0-.21.33-.68.75-.1-.27-.15-.43-.15-.44m-22.53-13.77c-.04-.13-.08-.26-.11-.39.3.3.66.6,1.08.9.05.43.13.87.24,1.3-.95-.97-1.21-1.79-1.22-1.81m24.14-.3h-.01c-.1-.11-.19-.21-.29-.31.12.06.24.12.37.18.1.09.21.17.31.26-.24-.08-.37-.13-.38-.14m-21.4,1.51c-.01-.71.04-1.38.13-1.99.47.09.93.13,1.38.13.17,0,.32,0,.47-.02-.13.53-.28,1.32-.35,2.26-.53-.07-1.08-.2-1.63-.38m16.01-2.17c.07.47.13.93.15,1.39,0,.04.24,3.81-1.69,7.05.14-3.16.89-6.28,1.54-8.44m3.7.47c.05-.26.09-.45.12-.59.45.56.9,1.15,1.32,1.75-.04.36-.09.82-.13,1.35-.38-.85-.83-1.7-1.31-2.51m.36-.6c.14.06.31.14.52.24.19.19.38.38.57.58l.1.15c-.02.1-.04.27-.07.5-.36-.51-.74-1-1.12-1.48m.63.08s-.06-.05-.08-.08c.04.02.07.04.11.07.03.02.06.05.09.07-.04-.02-.08-.04-.12-.06m-21.24,2.03h-.01s-.02-.02-.02-.02c-.37-.2-.71-.41-1.01-.62-.06-.58-.08-1.15-.05-1.71.53.22,1.06.38,1.58.49-.09.6-.14,1.27-.13,1.96-.12-.04-.23-.07-.35-.12m17.69,11.47c-.22-1.02-.35-2.08-.4-3.15,1.9-3.5,1.33-7.51,1.32-7.56-.08-.59-.2-1.18-.35-1.78.13-.57.25-1.06.36-1.45.43.89.82,1.81,1.13,2.73-.35,2.33-.68,5.88-.26,9.33-.25.56-.57,1.11-.95,1.64,0,0-.24.31-.73.69-.08-.28-.12-.44-.12-.45m-15.33-10.87c.07-.97.23-1.78.36-2.31.7-.07,1.09-.24,1.11-.25.52-.22.99-.48,1.44-.77-.38.9-.7,1.83-.92,2.76,0,0-.05.21-.11.54-.29.05-.63.08-1.02.08-.28,0-.56-.02-.85-.05m18.01-3.03h-.01c-.09-.11-.18-.22-.27-.33.11.07.23.14.36.21.1.09.19.19.29.28-.23-.1-.36-.16-.37-.16m-22.76.64c-.11-.49-.17-.97-.2-1.44.24.19.5.38.79.56h0s.15.09.15.09c.12.06.25.11.37.17-.03.53-.02,1.08.03,1.63-.46-.34-.83-.68-1.14-1.01m22.12-1.4s-.05-.06-.08-.09c.03.02.07.05.1.07.03.03.06.05.09.08-.04-.02-.08-.04-.11-.06m-.62-.13c.13.07.3.16.5.28.17.21.35.41.52.62l.09.16c-.02.1-.06.27-.11.49-.32-.53-.66-1.05-1-1.56m-.41.57c.07-.25.13-.45.17-.58.41.59.81,1.21,1.19,1.85-.07.36-.15.81-.24,1.34-.32-.88-.7-1.75-1.12-2.61m-3.66-.75c.04.47.05.94.05,1.4,0,.04-.04,3.82-2.22,6.9.38-3.14,1.36-6.19,2.18-8.3m.12,13.5c-.15-1.04-.19-2.11-.16-3.18,2.16-3.35,1.9-7.39,1.89-7.44-.04-.59-.11-1.19-.22-1.8.17-.56.33-1.03.47-1.42.36.92.68,1.87.92,2.8-.52,2.29-1.13,5.81-.97,9.29-.3.54-.65,1.06-1.08,1.56,0,0-.26.29-.78.63-.06-.28-.08-.45-.08-.46m3.72-13.66h-.01c-.08-.12-.16-.24-.24-.35.11.07.22.15.34.24.09.1.18.2.27.3-.22-.12-.35-.18-.35-.19m-22.6-.32c-.03-.13-.06-.26-.08-.4.28.32.61.65,1.01.98.02.43.06.87.15,1.32-.87-1.04-1.07-1.88-1.08-1.9m2.64,1.43c.05-.71.15-1.38.28-1.99.73.2,1.36.26,1.84.26-.17.52-.38,1.3-.52,2.23-.52-.11-1.06-.28-1.6-.51m19.38-1.91s-.05-.06-.07-.1c.03.03.06.05.1.08.03.03.05.06.08.08-.04-.02-.07-.05-.11-.07m-.61-.17c.12.08.28.18.47.31.16.22.32.44.47.66l.07.17c-.03.1-.08.26-.14.49-.28-.56-.58-1.1-.88-1.63m-.45.54c.09-.25.16-.43.21-.57.36.62.71,1.27,1.04,1.93-.1.35-.21.8-.34,1.32-.25-.9-.56-1.8-.92-2.68m-16.55,2.1c.15-.96.37-1.76.53-2.28.7-.02,1.11-.16,1.13-.17.53-.18,1.03-.41,1.49-.66-.44.87-.83,1.77-1.13,2.68,0,0-.07.2-.15.53-.16.01-.33.02-.51.02-.44,0-.9-.04-1.36-.13m12.96-3.12c0,.48-.02.94-.06,1.4,0,.04-.34,3.81-2.74,6.71.62-3.1,1.83-6.07,2.8-8.11m-15.26,2.34h-.01s-.02-.02-.02-.02c-.36-.23-.67-.46-.96-.69-.02-.59,0-1.16.08-1.71.55.28,1.06.47,1.54.61-.13.6-.23,1.26-.28,1.96-.11-.05-.23-.1-.34-.15m14.35,11.13c-.07-1.04-.03-2.11.08-3.18,2.41-3.17,2.46-7.23,2.46-7.27,0-.59-.02-1.2-.08-1.81.21-.54.41-1,.57-1.38.29.95.54,1.91.7,2.87-.69,2.25-1.57,5.71-1.67,9.19-.33.51-.73,1.01-1.19,1.47,0,0-.28.27-.83.57-.04-.28-.05-.45-.05-.46m4.75-13.34h-.01c-.07-.13-.14-.25-.22-.37.1.08.21.17.32.26.08.1.16.21.25.32-.21-.14-.33-.21-.34-.22m-.52-.85s-.04-.07-.06-.1c.03.03.06.06.09.09.02.03.05.06.07.09-.03-.03-.07-.05-.1-.08m-.59-.22c.12.09.27.21.45.35.14.23.28.46.42.69l.06.18c-.04.1-.1.26-.18.47-.24-.58-.49-1.14-.75-1.69m-.49.5c.11-.24.19-.42.25-.55.31.65.61,1.32.89,2.01-.12.34-.27.78-.44,1.29-.18-.92-.42-1.84-.71-2.74m-19.75.8c-.07-.49-.1-.98-.09-1.45.23.21.47.41.74.62h0s.14.09.14.09c.12.07.24.13.36.19-.07.53-.1,1.07-.09,1.63-.43-.37-.78-.74-1.06-1.09m20.07-1.66h-.01c-.06-.13-.12-.26-.19-.38.1.09.2.18.3.29.08.11.15.23.22.34-.2-.15-.31-.24-.32-.24m-3.82-.43c-.04.47-.09.94-.17,1.39,0,.04-.62,3.77-3.24,6.48.85-3.05,2.29-5.91,3.41-7.87m-1.93,13.36c.01-1.04.13-2.11.32-3.16,2.64-2.98,3-7.02,3-7.06.05-.59.07-1.2.06-1.81.25-.52.49-.97.68-1.33.22.97.39,1.95.49,2.91-.86,2.18-1.99,5.57-2.36,9.03-.37.49-.8.95-1.3,1.38,0,0-.3.25-.87.51-.01-.29-.01-.46-.01-.47m-12.96-11.92c.1-.7.25-1.36.43-1.95.69.25,1.3.36,1.81.4-.2.51-.47,1.26-.69,2.18-.48-.14-1-.34-1.55-.63m18.26-1.9s-.04-.07-.05-.1c.03.03.05.06.08.1.02.03.04.06.06.09-.03-.03-.06-.06-.09-.09m-20.78.27c-.02-.13-.04-.27-.05-.4.26.34.56.69.94,1.05-.01.43,0,.87.05,1.32-.79-1.1-.93-1.96-.93-1.97m20.2-.54c.11.1.25.23.42.38.12.24.25.48.37.72l.05.18c-.05.1-.12.25-.21.46-.19-.59-.4-1.18-.62-1.74m-14.1.54c.54-.14,1.06-.33,1.54-.55-.51.84-.97,1.7-1.33,2.59,0,0-.08.2-.19.52-.01,0-.03,0-.04,0-.47,0-1.08-.06-1.81-.26.22-.95.5-1.72.7-2.22.09,0,.17,0,.25,0,.55,0,.87-.08.88-.09m13.58-.07c.12-.23.22-.41.29-.53.26.67.51,1.36.74,2.07-.15.33-.33.75-.53,1.25-.11-.93-.28-1.87-.5-2.79m-17.66,1.43h-.01s-.02-.02-.02-.02c-.34-.25-.63-.51-.9-.76.02-.59.1-1.15.21-1.69.52.32,1.02.55,1.49.73-.18.58-.33,1.23-.43,1.92-.11-.06-.22-.11-.33-.18m18.05-2.27h0c-.05-.14-.11-.27-.16-.4.09.1.18.2.28.31.06.12.13.24.19.36-.19-.17-.3-.26-.3-.27m-6.72,12.46c.09-1.04.29-2.09.56-3.13,2.86-2.77,3.52-6.77,3.53-6.82.1-.58.16-1.18.19-1.8.29-.5.56-.93.78-1.28.14.98.24,1.97.26,2.94-1.03,2.12-2.41,5.4-3.04,8.83-.41.46-.87.89-1.4,1.27,0,0-.31.23-.91.44,0-.29.02-.46.02-.47m2.94-13.18c-.07.47-.16.93-.27,1.37-.01.04-.91,3.71-3.73,6.21,1.08-2.97,2.73-5.72,4-7.59m3.39-.2l-.04-.11s.05.07.07.1c.02.03.04.07.06.1-.03-.03-.06-.06-.09-.09m-.55-.3c.1.1.23.24.39.41.11.25.21.5.31.75l.03.18c-.05.09-.14.24-.25.44-.15-.6-.31-1.2-.49-1.78m-.56.42c.14-.22.25-.39.33-.51.21.69.41,1.4.58,2.12-.17.32-.39.73-.63,1.21-.04-.93-.14-1.88-.28-2.82m-18.64.93c-.03-.5-.02-.98.02-1.46.21.22.44.45.69.68h0s.13.1.13.1c.12.08.24.16.35.23-.11.52-.18,1.06-.22,1.62-.4-.4-.72-.8-.97-1.17m19.09-1.74h0c-.04-.14-.08-.28-.13-.41.08.1.17.21.25.33.06.12.11.24.17.37-.17-.18-.27-.28-.28-.29m-13.99-.15c.55-.1,1.08-.25,1.58-.43-.57.8-1.09,1.62-1.53,2.48,0,.01-.1.19-.23.51-.51-.03-1.12-.14-1.83-.4.29-.93.63-1.68.87-2.17.24.03.45.04.63.04.32,0,.5-.03.51-.03m6.35,12.06c.17-1.03.45-2.06.8-3.07,3.06-2.55,4.03-6.48,4.04-6.53.14-.57.25-1.17.33-1.78.33-.48.63-.89.87-1.21.07.99.09,1.99.04,2.95-1.19,2.03-2.82,5.2-3.71,8.57-.44.43-.94.82-1.49,1.17,0,0-.33.21-.94.38.03-.29.06-.46.06-.47m-10.03-10.71c.15-.69.36-1.34.58-1.92.68.3,1.28.46,1.78.53-.24.49-.57,1.23-.85,2.13-.47-.18-.97-.42-1.5-.75m13.97-2.2c-.11.46-.23.91-.38,1.35-.01.04-1.19,3.63-4.19,5.91,1.3-2.88,3.16-5.49,4.56-7.26m-16.36.39c-.01-.13-.02-.27-.02-.4.23.36.51.73.85,1.12-.05.43-.07.87-.05,1.32-.71-1.16-.78-2.02-.78-2.04m19.76-.33s-.02-.07-.04-.11c.02.04.04.07.07.1.02.04.03.07.05.11-.03-.03-.05-.07-.08-.1m-.53-.35c.1.11.22.26.36.44.09.25.17.51.26.77l.02.18c-.06.09-.16.23-.28.42-.1-.62-.22-1.22-.35-1.82m-.59.38c.16-.21.28-.37.37-.48.16.7.3,1.43.41,2.16-.2.3-.44.7-.71,1.16.03-.93,0-1.89-.07-2.83m-16.73,1.8h-.01s-.02-.02-.02-.02c-.32-.28-.59-.55-.84-.83.07-.58.19-1.14.33-1.67.5.35.98.63,1.43.84-.22.57-.42,1.21-.57,1.89-.1-.07-.21-.13-.31-.21m17.24-2.57h0c-.03-.15-.06-.28-.1-.42.07.11.15.22.23.35.04.13.09.25.14.38-.16-.19-.25-.3-.26-.31m-8.53,11.3c.25-1.02.61-2.03,1.03-3.01,3.25-2.31,4.51-6.16,4.52-6.2.19-.56.34-1.15.47-1.75.37-.45.69-.84.96-1.14,0,.99-.06,1.99-.19,2.95-1.34,1.94-3.21,4.97-4.35,8.26-.47.39-1,.75-1.58,1.05,0,0-.35.18-.96.3.05-.28.09-.45.09-.46m8.29-12.26s-.02-.08-.03-.11c.02.04.04.07.06.11.01.03.03.07.04.11-.02-.04-.05-.07-.07-.11m-18.92,1.25c0-.5.05-.98.13-1.45.19.24.4.48.64.73h0s.07.07.07.07l.05.04c.11.09.22.17.33.26-.15.51-.26,1.04-.34,1.6-.37-.43-.66-.85-.88-1.24m15.54-1.56c-.14.45-.3.89-.47,1.32-.02.04-1.46,3.53-4.62,5.57,1.52-2.77,3.57-5.24,5.1-6.89m2.88-.07c.08.12.19.28.32.47.07.26.13.52.19.79v.18c-.06.08-.17.22-.31.4-.06-.62-.13-1.24-.21-1.84m-.62.33c.17-.2.31-.35.41-.45.1.71.19,1.44.25,2.18-.22.29-.49.66-.8,1.1.1-.93.15-1.88.15-2.83m-12.58-.2c.56-.06,1.09-.16,1.6-.31-.63.75-1.21,1.54-1.71,2.35,0,0-.11.18-.27.49-.49-.07-1.1-.22-1.8-.53.36-.91.76-1.63,1.04-2.1.42.09.74.1.92.1.14,0,.21,0,.21,0m-3.78,1.07c.2-.68.46-1.31.72-1.87.66.35,1.25.55,1.73.67-.28.47-.66,1.18-1.01,2.06-.45-.21-.93-.49-1.44-.86m16.93-1.6h0c-.02-.15-.04-.29-.07-.43.06.12.13.24.2.36.04.13.07.26.11.39-.14-.2-.23-.32-.24-.33m-19.17-.39c0-.13,0-.27,0-.4.2.37.45.77.76,1.18-.08.43-.13.87-.16,1.32-.61-1.21-.62-2.08-.62-2.09m9.8,11.01c.33-.99.76-1.97,1.26-2.92,3.41-2.05,4.96-5.8,4.98-5.84.23-.54.42-1.12.6-1.71.4-.42.75-.78,1.04-1.07-.08.99-.21,1.98-.41,2.93-1.48,1.83-3.57,4.72-4.96,7.91-.5.35-1.05.67-1.66.93,0,0-.36.15-.98.23.07-.28.13-.45.13-.46m9.2-11.6s-.01-.08-.02-.11c.02.04.03.08.05.12.01.04.02.07.03.11-.02-.04-.04-.08-.06-.11m-17.22,2.23h0s-.02-.03-.02-.03c-.3-.3-.55-.6-.78-.89.11-.57.27-1.12.46-1.64.47.39.93.7,1.36.94-.26.55-.51,1.17-.72,1.84-.1-.07-.2-.15-.3-.23m16.75-2.65c.08.13.17.29.29.49.05.27.09.53.13.81v.18c-.08.08-.2.2-.35.37,0-.62-.03-1.24-.07-1.85m-.64.28c.19-.18.34-.32.44-.42.05.72.08,1.46.08,2.2-.24.27-.54.62-.88,1.03.17-.92.29-1.86.36-2.81m-2.24-.43c-.18.44-.37.87-.57,1.28-.02.04-1.73,3.41-5.03,5.21,1.72-2.65,3.95-4.95,5.61-6.48m2.86-.25h0c-.01-.15-.02-.29-.03-.43.05.12.11.24.17.38.03.13.05.26.08.4-.13-.21-.2-.33-.21-.34m-13.15-.47c.56-.01,1.1-.08,1.62-.19-.69.7-1.33,1.44-1.88,2.22,0,.01-.12.17-.3.46-.48-.11-1.08-.31-1.75-.67.43-.88.88-1.57,1.19-2.01.59.17,1,.18,1.09.18h.03Zm-5.33,1.1c.04-.49.13-.98.24-1.44.17.25.36.51.58.77h0s.06.07.06.07l.05.04c.11.1.21.19.32.28-.19.49-.34,1.02-.46,1.57-.33-.46-.59-.9-.79-1.3m8.33,9.24c.4-.97.91-1.91,1.48-2.82,3.56-1.79,5.39-5.4,5.41-5.44.27-.53.51-1.08.73-1.66.43-.39.81-.72,1.12-.98-.16.98-.36,1.95-.63,2.88-1.61,1.71-3.92,4.43-5.55,7.51-.53.31-1.1.59-1.72.8,0,0-.37.13-1,.15.09-.27.16-.43.16-.44m10.05-10.86s0-.08-.01-.12c.01.04.03.08.04.12,0,.04.02.08.03.11-.02-.04-.04-.08-.06-.12m-.44-.46c.07.13.15.31.25.51.03.27.05.54.07.82l-.02.18c-.08.07-.2.19-.37.35.04-.62.06-1.24.07-1.85m-16.47,1.76c.25-.67.56-1.27.86-1.81.63.4,1.2.65,1.67.8-.31.45-.75,1.13-1.16,1.97-.43-.25-.89-.56-1.37-.96m15.81-1.52c.2-.17.36-.29.47-.38,0,.72-.03,1.46-.09,2.19-.26.25-.59.58-.96.97.24-.9.43-1.84.57-2.78m-2.2-.6c-.21.42-.43.84-.67,1.23-.02.04-1.98,3.26-5.42,4.81,1.92-2.51,4.32-4.63,6.08-6.04m-15.7-.03c0-.13.02-.27.04-.4.17.39.39.8.67,1.23-.11.42-.2.85-.25,1.3-.52-1.25-.46-2.12-.46-2.13m18.56,0h0c0-.15,0-.29,0-.43.05.12.09.25.14.39.02.13.03.27.05.4-.11-.22-.18-.35-.18-.36m-16.91,1.78h-.01s-.02-.03-.02-.03c-.27-.32-.5-.64-.71-.95.16-.56.36-1.1.58-1.6.44.43.87.77,1.28,1.05-.3.53-.6,1.13-.85,1.78-.09-.08-.19-.16-.28-.25m16.89-2.77s0-.08,0-.12c.01.04.02.08.03.12,0,.04,0,.08.02.11-.02-.04-.03-.08-.05-.12m-11.05,10.5c.12-.27.19-.42.2-.43.47-.93,1.05-1.83,1.69-2.69,3.68-1.51,5.78-4.98,5.81-5.02.31-.5.59-1.04.85-1.6.46-.36.87-.66,1.2-.9-.23.97-.51,1.92-.85,2.83-1.74,1.58-4.25,4.12-6.1,7.06-.55.27-1.14.5-1.77.66,0,0-.31.08-.83.08-.06,0-.11,0-.17,0m10.65-10.99c.06.14.13.31.21.53,0,.27.01.54.01.82l-.04.18c-.08.06-.22.17-.39.32.09-.62.16-1.23.21-1.84m-.67.18c.21-.15.38-.26.5-.34-.06.72-.14,1.45-.25,2.18-.28.23-.63.53-1.03.89.31-.88.57-1.8.78-2.73m-14.43,1.48c.49-.84.99-1.49,1.34-1.91.64.23,1.07.26,1.11.26.16,0,.33.01.49.01.39,0,.77-.04,1.15-.08-.74.65-1.44,1.34-2.05,2.07,0,0-.14.16-.34.44-.47-.14-1.05-.39-1.69-.8m12.28-2.25c-.24.41-.49.8-.76,1.17-.03.04-2.22,3.11-5.77,4.38,2.1-2.36,4.66-4.29,6.53-5.56m-15.22,1.29c.08-.49.2-.96.35-1.41.15.26.32.53.52.81h0s.06.08.06.08l.04.05c.1.11.2.2.3.3-.22.48-.42.99-.58,1.53-.3-.48-.52-.94-.69-1.36m18.09-1.11h0c0-.15.02-.29.03-.43.04.12.08.26.12.4,0,.13.01.27.02.4-.09-.23-.15-.36-.15-.37m-16.6.9c.3-.64.65-1.22.99-1.74.6.45,1.15.74,1.61.93-.35.42-.83,1.07-1.31,1.88-.41-.28-.85-.63-1.29-1.06m16.65-1.89s0-.08,0-.12c0,.04.01.08.02.12,0,.04,0,.08,0,.12-.01-.04-.03-.08-.04-.12m-11.81,9.63c.13-.26.22-.41.23-.41.54-.89,1.19-1.75,1.89-2.56,3.79-1.23,6.15-4.52,6.17-4.56.34-.48.67-.99.97-1.53.48-.32.91-.59,1.26-.8-.3.95-.65,1.88-1.06,2.76-1.86,1.45-4.55,3.79-6.62,6.58-.57.23-1.18.41-1.82.53,0,0-.17.03-.47.03-.15,0-.33,0-.54-.03m11.45-10.14c.05.14.1.32.17.54-.01.27-.03.54-.05.82l-.05.17c-.09.06-.23.15-.42.29.14-.61.25-1.22.35-1.82m-.69.13c.22-.14.4-.24.52-.31-.11.71-.25,1.44-.42,2.16-.3.21-.67.48-1.1.81.38-.85.71-1.75.99-2.66m-17.52-.03c.02-.13.04-.26.07-.39.14.4.33.83.58,1.28-.14.41-.26.83-.35,1.28-.42-1.29-.3-2.15-.29-2.16m1.51,1.89h0s-.02-.03-.02-.03c-.25-.34-.45-.68-.63-1,.2-.55.44-1.07.7-1.55.41.46.81.83,1.2,1.14-.34.51-.68,1.08-.98,1.71-.09-.09-.17-.17-.26-.27m13.92-2.79c-.27.39-.55.76-.85,1.11-.03.03-2.45,2.93-6.08,3.93,2.28-2.19,4.97-3.92,6.93-5.04m2.84.4h0c.02-.15.04-.29.06-.43.03.13.06.26.08.41,0,.13,0,.27-.02.41-.08-.24-.12-.37-.13-.38m-15.25.91c.55-.8,1.1-1.41,1.48-1.8.62.28,1.05.34,1.09.34.39.05.79.08,1.19.08h0c.15,0,.3-.01.45-.02-.79.59-1.53,1.22-2.2,1.91,0,0-.15.15-.37.41-.46-.18-1.02-.47-1.63-.93m15.39-1.89s0-.08.02-.12c0,.04,0,.08.01.12v.11s-.02-.08-.03-.12m-12.51,8.7c.15-.24.25-.38.26-.39.61-.85,1.32-1.65,2.08-2.41,3.87-.93,6.47-4.04,6.5-4.08.38-.45.74-.94,1.08-1.45.51-.28.96-.52,1.32-.71-.37.92-.8,1.82-1.27,2.67-1.96,1.3-4.82,3.43-7.1,6.05-.59.19-1.21.32-1.86.39,0,0-.07,0-.19,0-.16,0-.44-.01-.82-.09m12.19-9.24c.03.14.08.33.13.56-.03.27-.07.54-.11.81l-.06.17c-.09.05-.24.14-.44.25.18-.6.34-1.19.49-1.79m-17.93,1.26c.12-.48.28-.95.46-1.38.13.27.28.55.45.85h0s.06.09.06.09l.04.05c.09.11.18.22.27.32-.26.46-.49.96-.69,1.48-.26-.5-.45-.98-.58-1.41m17.24-1.18c.23-.12.42-.21.54-.26-.17.7-.36,1.41-.58,2.12-.31.19-.7.43-1.15.72.44-.82.84-1.69,1.19-2.58m-15.73,1.08c.35-.62.74-1.17,1.12-1.65.56.49,1.09.82,1.53,1.04-.38.39-.91,1-1.44,1.77-.39-.31-.8-.69-1.21-1.16m16.53-1.55h0c.03-.15.06-.28.1-.42.02.13.03.27.05.41-.01.13-.03.27-.04.4-.06-.24-.09-.38-.1-.39m-2.8-.61c-.3.37-.61.72-.93,1.04-.03.03-2.67,2.73-6.36,3.46,2.44-2.01,5.25-3.54,7.29-4.5m2.75-.03c-.03.15-.07.31-.1.47l-.08.16c-.09.04-.25.12-.46.22.11-.28.22-.57.32-.85h-.2c-.12.32-.24.65-.37.98-.32.16-.73.38-1.21.64.33-.52.65-1.06.94-1.61h-.22c-.33.62-.69,1.23-1.08,1.81-2.05,1.15-5.07,3.05-7.54,5.49-.6.14-1.23.23-1.88.24l-.02.1v-.1c-.09,0-.45,0-.98-.15.17-.23.28-.37.29-.38.67-.8,1.44-1.55,2.26-2.25,3.93-.64,6.76-3.53,6.79-3.57.37-.38.73-.78,1.07-1.21h-.65c-2.09,1.01-4.89,2.56-7.28,4.59-.46.07-.93.12-1.42.12-.16,0-.32,0-.48-.01,0,0-.39-.02-.98-.23.19-.22.31-.34.31-.35.73-.75,1.55-1.43,2.41-2.06,2.38-.2,4.44-1.25,5.7-2.06h-.37c-1.19.73-2.97,1.59-5.02,1.83.97-.68,1.99-1.29,2.99-1.83h-.4c-1.01.55-2.02,1.18-2.98,1.87-.24.02-.48.03-.72.03-.39,0-.78-.03-1.17-.08,0,0-.39-.05-.96-.31.21-.2.33-.32.34-.32.48-.43,1-.82,1.54-1.2h-.33c-.46.33-.91.68-1.33,1.05,0,0-.16.14-.4.38-.44-.21-.98-.55-1.55-1.05.11-.14.22-.27.33-.39h-.25c-.07.08-.15.17-.22.26-.09-.08-.18-.17-.27-.26h-.27c.14.15.28.29.42.41-.38.48-.76,1.02-1.11,1.63-.08-.09-.16-.18-.24-.29h0s-.01-.03-.01-.03c-.22-.36-.4-.71-.56-1.04.11-.23.22-.46.33-.68h-.22c-.08.14-.15.29-.22.44-.06-.15-.12-.3-.18-.44h-.21c.08.22.17.45.28.68-.18.4-.33.81-.45,1.24-.22-.9-.2-1.59-.17-1.93h-.19c-.05.41-.06,1.23.26,2.31-.06.24-.1.47-.14.72-.01.06-.17,1.09.41,2.58-.04.24-.07.48-.09.73,0,.07-.08,1.1.61,2.54-.02.24-.03.48-.03.73,0,.07,0,1.1.8,2.49,0,.24,0,.49.02.73,0,.06.08,1.09.99,2.42.02.24.04.48.08.73,0,.06.17,1.09,1.17,2.34.04.24.08.48.13.72.01.06.25,1.07,1.34,2.24.05.24.11.47.19.71.02.06.33,1.05,1.51,2.14.07.23.15.46.24.69.02.06.41,1.02,1.67,2.01.09.23.19.45.3.67.03.06.49.99,1.81,1.88.1.22.22.44.35.65.03.06.56.94,1.95,1.74.12.21.25.42.39.62.04.05.63.9,2.08,1.58.14.2.28.4.44.59.04.05.7.85,2.19,1.42.15.19.31.37.48.55.04.04.76.79,2.29,1.25.17.18.34.35.53.52.04.04.81.73,2.39,1.07.18.16.36.32.56.47.04.03.86.67,2.46.89.19.15.39.29.6.43.04.03.9.6,2.52.7.2.13.41.27.63.39.04.02.9.51,2.46.51.03,0,.07,0,.1,0,.21.12.43.24.66.34.03.01.72.34,1.95.34.21,0,.43-.01.64-.03.22.1.45.2.68.29.02,0,.55.21,1.47.21s2.28-.19,3.97-1.1h.01s.16-.1.16-.1h0c2.93-2.12,3.16-4.38,3.17-4.48.5-4.91-3.22-8.91-3.25-8.94-2.82-3.04-7.46-5.34-10.38-6.58-.59-.34-1.15-.64-1.66-.9-.57-.38-1.1-.72-1.59-1.02-.53-.42-1.04-.81-1.5-1.14-.5-.46-.98-.88-1.42-1.26-.47-.5-.91-.95-1.31-1.36-.43-.53-.83-1.02-1.21-1.45-.38-.56-.75-1.08-1.09-1.54-.34-.59-.67-1.14-.97-1.62-.3-.62-.58-1.18-.85-1.69-.25-.64-.49-1.22-.72-1.75-.2-.65-.39-1.26-.58-1.8-.15-.67-.3-1.28-.44-1.84-.1-.68-.2-1.3-.3-1.87-.04-.68-.1-1.31-.16-1.88,0-.56,0-1.09,0-1.58h-.49Z"/>
    </clipPath>
    <clipPath id="uuid-29264ade-0cbf-4088-beba-6ed2b0abfcad">
      <rect class="uuid-7aebfa0e-4f86-4ca6-9c00-f817d13d8c7e" x="29.02" y="1.5" width="46.94" height="43.92"/>
    </clipPath>
    <linearGradient id="uuid-d42758a4-d22a-44c9-bf2b-58ed94a0ecf9" data-name="Dégradé sans nom 3" x1="-14.17" y1="155.91" x2="-13.17" y2="155.91" gradientTransform="translate(9502.65 843.92) rotate(90) scale(60.62)" gradientUnits="userSpaceOnUse">
      <stop offset="0" stop-color="#1d1d1b"/>
      <stop offset=".47" stop-color="#1d1d1b"/>
      <stop offset=".55" stop-color="#484847"/>
      <stop offset=".71" stop-color="#959595"/>
      <stop offset=".85" stop-color="#cecece"/>
      <stop offset=".95" stop-color="#f1f1f1"/>
      <stop offset="1" stop-color="#fff"/>
    </linearGradient>
    <mask id="uuid-d6d65a98-c893-44a2-9cab-9d575260662f" data-name="mask" x="18.29" y="-15.19" width="68.42" height="72.09" maskUnits="userSpaceOnUse">
      <g>
        <rect class="uuid-e8635cfb-7258-4bc4-a731-ff536a072547" x="29.02" y="1.5" width="46.94" height="43.92"/>
        <g class="uuid-abba5f14-952a-4c70-82b8-2acc893d85f3">
          <g class="uuid-087c0efe-f803-4a8c-b781-3699296791fc">
            <rect class="uuid-221b066a-12ae-4904-91ea-140423bfd0ba" x="28.89" y="-15.19" width="47.08" height="60.61"/>
          </g>
        </g>
      </g>
    </mask>
    <clipPath id="uuid-700f59e0-7623-4ca4-9426-22d0e7cbee34">
      <rect class="uuid-7aebfa0e-4f86-4ca6-9c00-f817d13d8c7e" x="29.02" y="1.5" width="46.94" height="43.92"/>
    </clipPath>
    <clipPath id="uuid-8022c943-f8d6-4f2f-ac3e-5ed2d23e795c">
      <rect class="uuid-7aebfa0e-4f86-4ca6-9c00-f817d13d8c7e" x="29.02" y="1.5" width="46.94" height="43.92"/>
    </clipPath>
    <linearGradient id="uuid-eabf23ba-683b-4f77-88c0-b2d0d5438c70" data-name="Dégradé sans nom 2" y1="155.91" y2="155.91" gradientTransform="translate(12405.46 -1040.02) rotate(-90) scale(79.23 -79.23)" xlink:href="#uuid-95ca302d-7495-4346-aed3-8d01096fb5e3"/>
    <clipPath id="uuid-e8c53d57-2177-49fc-91e0-5b681a7e3cac">
      <rect class="uuid-7aebfa0e-4f86-4ca6-9c00-f817d13d8c7e" x="-14.17" y="-14.17" width="255.12" height="170.08"/>
    </clipPath>
  </defs>
  <g id="uuid-e211b88c-2fe9-439c-98ba-06c45eca2d07" data-name="Calque 1">
    <g class="uuid-b4c9799b-7cb8-4247-8219-60e6e4e7b6d5">
      <g class="uuid-2a01b1ee-648d-49ee-9147-e021e92258d7">
        <path class="uuid-671ef68a-e4bd-4f46-afa9-4c9c724dc891" d="m0,0v128.01c0,7.58,6.35,13.72,14.19,13.72h198.4c7.83,0,14.18-6.14,14.18-13.72V0H0Z"/>
      </g>
      <g class="uuid-e8d06012-e0db-40b1-84f1-4f88e0a0151c">
        <rect class="uuid-74f1e9b4-4cad-4caa-aee9-2420d0b4e11c" x="24.24" y="-3.71" width="56.51" height="54.35" transform="translate(-4.23 14.03) rotate(-14.64)"/>
      </g>
      <g class="uuid-a95b09d3-9fe4-4bc9-a587-6b582295c550">
        <g class="uuid-0be40085-397f-4560-972b-ea3dfc2aaea7">
          <g class="uuid-a0221383-0eb0-44ef-9cd3-b49701f9854b">
            <g class="uuid-258ce2bf-7661-431d-bbd5-ab4edbd99add">
              <rect class="uuid-9b17d05a-4c3d-4623-bbaa-29ee572a06fc" x="24.24" y="-3.71" width="56.52" height="54.35" transform="translate(-4.23 14.03) rotate(-14.64)"/>
            </g>
          </g>
        </g>
      </g>
      <g class="uuid-b7519674-c4b5-4ad5-bf82-7112d0f62fc6">
        <path class="uuid-4d926fc0-e27a-4db7-ab00-981a4f37010b" d="m74.34,30.83c-4.72-4.37-13.57-6.59-13.57-6.59,0,0,0,.01,0,.04-.02,0-.04,0-.04,0l.04.05c-.06.86-.56,9.06,2.21,14.87,0,0,2.29,4.93,7.05,6.28,0,0,2.24.67,5.32-1.32h0s.01,0,.02-.01c0,0,.01,0,.02-.01h0c2.83-2.35,2.85-4.69,2.85-4.69.13-4.95-3.89-8.6-3.89-8.6"/>
        <path class="uuid-8aa6bc3d-d4bd-46ee-b1a1-dcc44c8ca5b1" d="m77.67,33.4c-1.21-6.32-7.03-13.35-7.03-13.35,0,0-.01.01-.03.03-.02-.02-.03-.03-.03-.03v.06c-.56.66-5.81,6.97-7.03,13.29,0,0-1.08,5.32,1.95,9.24,0,0,1.4,1.87,5.07,2.09h0s.02,0,.03,0,.02,0,.03,0h0c3.67-.22,5.07-2.09,5.07-2.09,3.03-3.91,1.96-9.24,1.96-9.24"/>
        <path class="uuid-4ba89f68-459f-4453-a3eb-ebd2a3e4d8cc" d="m68.2,30.83c4.72-4.37,13.57-6.59,13.57-6.59,0,0,0,.01,0,.04.02,0,.04,0,.04,0l-.04.05c.06.86.56,9.06-2.21,14.87,0,0-2.29,4.93-7.05,6.28,0,0-2.24.67-5.32-1.32h0s-.01,0-.02-.01c0,0-.01,0-.02-.01h0c-2.83-2.35-2.85-4.69-2.85-4.69-.13-4.95,3.89-8.6,3.89-8.6"/>
        <path class="uuid-b2d50ec1-1428-461b-904e-2ab7fcbeb33d" d="m71.65,34.76c4.43-3.16,12.07-4.25,12.07-4.25,0,0,0,.01,0,.03.02,0,.03,0,.03,0l-.04.04c-.04.7-.54,7.38-3.5,11.86,0,0-2.46,3.81-6.59,4.53,0,0-1.94.37-4.3-1.5h0s0,0-.01-.01c0,0-.01,0-.02-.01h0c-2.1-2.13-1.86-4.02-1.86-4.02.44-4.02,4.21-6.65,4.21-6.65"/>
        <path class="uuid-e214ff0b-da05-4cee-9fb4-9a2743df76b2" d="m71.65,34.76c4.43-3.16,12.07-4.25,12.07-4.25,0,0,0,.01,0,.03.02,0,.03,0,.03,0l-.04.04c-.04.7-.54,7.38-3.5,11.86,0,0-2.46,3.81-6.59,4.53,0,0-1.94.37-4.3-1.5h0s0,0-.01-.01c0,0-.01,0-.02-.01h0c-2.1-2.13-1.86-4.02-1.86-4.02.44-4.02,4.21-6.65,4.21-6.65Z"/>
        <path class="uuid-8e7799f3-dd4e-4fe6-8bf9-89a5768020ed" d="m55.3,60.96h-11.56c-1.44,0-2.63.48-2.63,1.73,0,3.52,17.14,8.06,17.14,17.85,0,5.37-1.51,12.54-16.22,12.54h-12.28v-9.67h11.89c2.63,0,4.27-.72,4.27-2.27,0-4.42-16.49-8-16.49-18.03,0-8.72,6.77-11.82,13.92-11.82h11.95v9.67Z"/>
        <rect class="uuid-8e7799f3-dd4e-4fe6-8bf9-89a5768020ed" x="67.32" y="51.29" width="11.43" height="41.8"/>
        <path class="uuid-8e7799f3-dd4e-4fe6-8bf9-89a5768020ed" d="m97.27,51.29l6.37,29.14h.13l7.09-29.14h11.96l-8.87,31.89c-2.17,7.76-4.27,10.63-10.44,10.63-5.78,0-8.14-2.87-10.11-10.51l-8.14-32.01h12.02Z"/>
        <path class="uuid-8e7799f3-dd4e-4fe6-8bf9-89a5768020ed" d="m129.85,93.09v-27.47c0-8.96,6.5-15.05,16.09-15.05s16.09,6.09,16.09,15.05v27.47h-11.43v-14.57h-7.16v-9.43h7.16v-3.94c0-3.11-1.84-5.14-4.66-5.14s-4.66,2.03-4.66,5.14v27.94h-11.43Z"/>
        <path class="uuid-8e7799f3-dd4e-4fe6-8bf9-89a5768020ed" d="m198.09,93.09h-8.74c-11.1,0-16.35-3.82-16.35-13.5v-28.3h11.43v27.35c0,3.4,1.25,4.42,5.85,4.42h7.82v10.03Z"/>
        <rect class="uuid-8e7799f3-dd4e-4fe6-8bf9-89a5768020ed" x="29.76" y="98.85" width="168.33" height=".77"/>
        <path class="uuid-8e7799f3-dd4e-4fe6-8bf9-89a5768020ed" d="m32.47,117.63c-1.17,0-2.4-.26-3.26-.65l.38-1.76c.92.29,1.86.49,2.91.49,1.17,0,1.39-.23,1.39-1.08,0-.91-.04-1.01-1.7-1.38-2.44-.53-2.8-1.01-2.8-3.2,0-2.01.71-2.82,3.49-2.82.88,0,1.94.09,3.06.33l-.23,1.91c-1.15-.2-1.89-.29-2.8-.29-1.01,0-1.24.18-1.24.92,0,.97.05.99,1.64,1.36,2.73.65,2.86,1.18,2.86,3.17s-.65,2.99-3.7,2.99"/>
        <path class="uuid-8e7799f3-dd4e-4fe6-8bf9-89a5768020ed" d="m46.81,117.48h-2.36l-.55-1.97h-3.38l-.55,1.97h-2.36l3.08-10.09h3.03l3.09,10.09Zm-5.77-3.86h2.32l-1.15-4.23-1.17,4.23Z"/>
        <polygon class="uuid-8e7799f3-dd4e-4fe6-8bf9-89a5768020ed" points="48.71 117.48 48.71 107.39 50.98 107.39 50.98 115.47 54.98 115.47 54.98 117.48 48.71 117.48"/>
        <path class="uuid-8e7799f3-dd4e-4fe6-8bf9-89a5768020ed" d="m64.45,114.54c0,1.53-1.06,3.09-3.91,3.09s-3.91-1.56-3.91-3.09v-4.21c0-1.53,1.06-3.09,3.91-3.09s3.91,1.56,3.91,3.09v4.21Zm-2.27-4.01c0-.79-.5-1.27-1.64-1.27s-1.64.49-1.64,1.27v3.82c0,.79.5,1.27,1.64,1.27s1.64-.49,1.64-1.27v-3.82Z"/>
        <polygon class="uuid-8e7799f3-dd4e-4fe6-8bf9-89a5768020ed" points="69.11 110.85 69.11 117.48 66.94 117.48 66.94 107.39 69.73 107.39 73.05 114.35 73.05 107.39 75.22 107.39 75.22 117.48 72.41 117.48 69.11 110.85"/>
        <rect class="uuid-8e7799f3-dd4e-4fe6-8bf9-89a5768020ed" x="81.97" y="107.39" width="2.27" height="10.09"/>
        <polygon class="uuid-8e7799f3-dd4e-4fe6-8bf9-89a5768020ed" points="89.2 110.85 89.2 117.48 87.03 117.48 87.03 107.39 89.82 107.39 93.14 114.35 93.14 107.39 95.3 107.39 95.3 117.48 92.5 117.48 89.2 110.85"/>
        <polygon class="uuid-8e7799f3-dd4e-4fe6-8bf9-89a5768020ed" points="102.22 109.41 102.22 117.48 99.94 117.48 99.94 109.41 97.23 109.41 97.23 107.39 104.93 107.39 104.93 109.41 102.22 109.41"/>
        <polygon class="uuid-8e7799f3-dd4e-4fe6-8bf9-89a5768020ed" points="106.86 117.48 106.86 107.39 113.21 107.39 113.21 109.41 109.13 109.41 109.13 111.25 112.89 111.25 112.89 113.27 109.13 113.27 109.13 115.47 113.21 115.47 113.21 117.48 106.86 117.48"/>
        <path class="uuid-8e7799f3-dd4e-4fe6-8bf9-89a5768020ed" d="m119.32,114.35h-1.33v3.14h-2.27v-10.09h4.2c2.45,0,3.36.97,3.36,2.86v1.24c0,1.26-.46,2.11-1.47,2.53l2.44,3.45h-2.7l-2.23-3.14Zm1.68-3.88c0-.76-.29-1.06-1.21-1.06h-1.8v2.97h1.8c.97,0,1.21-.35,1.21-1.11v-.8Z"/>
        <polygon class="uuid-8e7799f3-dd4e-4fe6-8bf9-89a5768020ed" points="128.38 110.85 128.38 117.48 126.21 117.48 126.21 107.39 129 107.39 132.32 114.35 132.32 107.39 134.49 107.39 134.49 117.48 131.69 117.48 128.38 110.85"/>
        <path class="uuid-8e7799f3-dd4e-4fe6-8bf9-89a5768020ed" d="m145.58,117.48h-2.36l-.54-1.97h-3.38l-.54,1.97h-2.36l3.08-10.09h3.03l3.09,10.09Zm-5.77-3.86h2.32l-1.15-4.23-1.17,4.23Z"/>
        <polygon class="uuid-8e7799f3-dd4e-4fe6-8bf9-89a5768020ed" points="150.91 109.41 150.91 117.48 148.64 117.48 148.64 109.41 145.92 109.41 145.92 107.39 153.62 107.39 153.62 109.41 150.91 109.41"/>
        <rect class="uuid-8e7799f3-dd4e-4fe6-8bf9-89a5768020ed" x="155.62" y="107.39" width="2.27" height="10.09"/>
        <path class="uuid-8e7799f3-dd4e-4fe6-8bf9-89a5768020ed" d="m168.29,114.54c0,1.53-1.06,3.09-3.91,3.09s-3.91-1.56-3.91-3.09v-4.21c0-1.53,1.06-3.09,3.91-3.09s3.91,1.56,3.91,3.09v4.21Zm-2.27-4.01c0-.79-.5-1.27-1.64-1.27s-1.64.49-1.64,1.27v3.82c0,.79.5,1.27,1.64,1.27s1.64-.49,1.64-1.27v-3.82Z"/>
        <polygon class="uuid-8e7799f3-dd4e-4fe6-8bf9-89a5768020ed" points="172.95 110.85 172.95 117.48 170.78 117.48 170.78 107.39 173.57 107.39 176.89 114.35 176.89 107.39 179.05 107.39 179.05 117.48 176.25 117.48 172.95 110.85"/>
        <path class="uuid-8e7799f3-dd4e-4fe6-8bf9-89a5768020ed" d="m190.15,117.48h-2.36l-.55-1.97h-3.38l-.54,1.97h-2.36l3.08-10.09h3.03l3.09,10.09Zm-5.77-3.86h2.32l-1.15-4.23-1.17,4.23Z"/>
        <polygon class="uuid-8e7799f3-dd4e-4fe6-8bf9-89a5768020ed" points="192.04 117.48 192.04 107.39 194.31 107.39 194.31 115.47 198.31 115.47 198.31 117.48 192.04 117.48"/>
        <path class="uuid-8e7799f3-dd4e-4fe6-8bf9-89a5768020ed" d="m31.93,128.22h-2.14v-5.53h2.14c1.36,0,1.87.69,1.87,1.44v2.66c0,.74-.51,1.44-1.87,1.44m.62-3.75c0-.43-.15-.67-.77-.67h-.75v3.32h.75c.62,0,.77-.24.77-.67v-1.98Z"/>
        <polygon class="uuid-8e7799f3-dd4e-4fe6-8bf9-89a5768020ed" points="34.76 128.22 34.76 122.69 38.24 122.69 38.24 123.8 36.01 123.8 36.01 124.81 38.06 124.81 38.06 125.92 36.01 125.92 36.01 127.12 38.24 127.12 38.24 128.22 34.76 128.22"/>
        <path class="uuid-8e7799f3-dd4e-4fe6-8bf9-89a5768020ed" d="m40.81,128.31c-.64,0-1.31-.14-1.78-.36l.21-.96c.51.16,1.02.27,1.59.27.64,0,.76-.12.76-.59,0-.5-.02-.56-.93-.76-1.34-.29-1.54-.56-1.54-1.75,0-1.1.39-1.54,1.91-1.54.48,0,1.06.05,1.68.18l-.12,1.05c-.63-.11-1.04-.16-1.53-.16-.56,0-.68.1-.68.51,0,.53.02.54.9.75,1.49.36,1.57.65,1.57,1.74s-.36,1.64-2.03,1.64"/>
        <polygon class="uuid-8e7799f3-dd4e-4fe6-8bf9-89a5768020ed" points="47.75 123.8 47.75 128.22 46.5 128.22 46.5 123.8 45.02 123.8 45.02 122.69 49.23 122.69 49.23 123.8 47.75 123.8"/>
        <polygon class="uuid-8e7799f3-dd4e-4fe6-8bf9-89a5768020ed" points="49.88 128.22 49.88 122.69 53.36 122.69 53.36 123.8 51.12 123.8 51.12 124.81 53.18 124.81 53.18 125.92 51.12 125.92 51.12 127.12 53.36 127.12 53.36 128.22 49.88 128.22"/>
        <path class="uuid-8e7799f3-dd4e-4fe6-8bf9-89a5768020ed" d="m55.4,126.41c0,.48.16.76.77.76.4,0,.95-.05,1.43-.13l.17,1.09c-.55.12-1.04.17-1.6.17-1.39,0-2.02-.69-2.02-1.69v-2.31c0-1,.62-1.69,2.02-1.69.56,0,1.05.06,1.6.17l-.17,1.09c-.48-.08-1.03-.13-1.43-.13-.61,0-.77.28-.77.76v1.91Z"/>
        <polygon class="uuid-8e7799f3-dd4e-4fe6-8bf9-89a5768020ed" points="61.64 128.22 61.64 126 59.85 126 59.85 128.22 58.61 128.22 58.61 122.69 59.85 122.69 59.85 124.89 61.64 124.89 61.64 122.69 62.88 122.69 62.88 128.22 61.64 128.22"/>
        <polygon class="uuid-8e7799f3-dd4e-4fe6-8bf9-89a5768020ed" points="65.15 124.59 65.15 128.22 63.96 128.22 63.96 122.69 65.49 122.69 67.31 126.5 67.31 122.69 68.5 122.69 68.5 128.22 66.96 128.22 65.15 124.59"/>
        <rect class="uuid-8e7799f3-dd4e-4fe6-8bf9-89a5768020ed" x="69.62" y="122.69" width="1.25" height="5.53"/>
        <path class="uuid-8e7799f3-dd4e-4fe6-8bf9-89a5768020ed" d="m73.64,128.29c-1.29-.12-1.78-.9-1.78-1.68v-2.31c0-.84.58-1.69,2.14-1.69s2.14.85,2.14,1.69v2.31c0,.65-.35,1.3-1.23,1.57l.44,1.03-1.13.47-.59-1.4Zm1.26-3.88c0-.43-.27-.7-.9-.7s-.9.26-.9.7v2.09c0,.43.27.7.9.7s.9-.27.9-.7v-2.09Z"/>
        <path class="uuid-8e7799f3-dd4e-4fe6-8bf9-89a5768020ed" d="m81.23,122.69v3.92c0,.84-.52,1.69-2.08,1.69s-2.08-.85-2.08-1.69v-3.92h1.25v3.8c0,.45.22.7.84.7s.84-.26.84-.7v-3.8h1.25Z"/>
        <polygon class="uuid-8e7799f3-dd4e-4fe6-8bf9-89a5768020ed" points="82.27 128.22 82.27 122.69 85.75 122.69 85.75 123.8 83.52 123.8 83.52 124.81 85.58 124.81 85.58 125.92 83.52 125.92 83.52 127.12 85.75 127.12 85.75 128.22 82.27 128.22"/>
        <path class="uuid-8e7799f3-dd4e-4fe6-8bf9-89a5768020ed" d="m88.33,128.31c-.64,0-1.31-.14-1.79-.36l.21-.96c.51.16,1.02.27,1.59.27.64,0,.76-.12.76-.59,0-.5-.02-.56-.93-.76-1.34-.29-1.54-.56-1.54-1.75,0-1.1.39-1.54,1.91-1.54.48,0,1.06.05,1.68.18l-.12,1.05c-.63-.11-1.04-.16-1.54-.16-.56,0-.68.1-.68.51,0,.53.02.54.9.75,1.49.36,1.57.65,1.57,1.74s-.36,1.64-2.03,1.64"/>
        <path class="uuid-8e7799f3-dd4e-4fe6-8bf9-89a5768020ed" d="m95.11,128.22h-2.14v-5.53h2.14c1.36,0,1.87.69,1.87,1.44v2.66c0,.74-.51,1.44-1.87,1.44m.62-3.75c0-.43-.15-.67-.77-.67h-.75v3.32h.75c.62,0,.77-.24.77-.67v-1.98Z"/>
        <polygon class="uuid-8e7799f3-dd4e-4fe6-8bf9-89a5768020ed" points="97.94 128.22 97.94 122.69 101.42 122.69 101.42 123.8 99.18 123.8 99.18 124.81 101.24 124.81 101.24 125.92 99.18 125.92 99.18 127.12 101.42 127.12 101.42 128.22 97.94 128.22"/>
        <path class="uuid-8e7799f3-dd4e-4fe6-8bf9-89a5768020ed" d="m106.31,126.55h-.95v1.68h-1.24v-5.53h2.26c1.34,0,1.84.53,1.84,1.57v.72c0,1.04-.56,1.56-1.91,1.56m.66-2.17c0-.4-.14-.58-.66-.58h-.95v1.67h.95c.55,0,.66-.21.66-.61v-.48Z"/>
        <path class="uuid-8e7799f3-dd4e-4fe6-8bf9-89a5768020ed" d="m110.94,126.5h-.73v1.72h-1.25v-5.53h2.3c1.34,0,1.84.53,1.84,1.57v.68c0,.69-.25,1.15-.81,1.39l1.34,1.89h-1.48l-1.22-1.72Zm.92-2.12c0-.42-.16-.58-.66-.58h-.99v1.63h.99c.53,0,.66-.19.66-.61v-.44Z"/>
        <path class="uuid-8e7799f3-dd4e-4fe6-8bf9-89a5768020ed" d="m118.35,126.61c0,.84-.58,1.69-2.14,1.69s-2.14-.85-2.14-1.69v-2.31c0-.84.58-1.69,2.14-1.69s2.14.85,2.14,1.69v2.31Zm-1.25-2.2c0-.43-.27-.7-.9-.7s-.9.26-.9.7v2.09c0,.43.27.7.9.7s.9-.27.9-.7v-2.09Z"/>
        <path class="uuid-8e7799f3-dd4e-4fe6-8bf9-89a5768020ed" d="m121.45,128.22h-2.14v-5.53h2.14c1.36,0,1.87.69,1.87,1.44v2.66c0,.74-.51,1.44-1.87,1.44m.62-3.75c0-.43-.15-.67-.77-.67h-.75v3.32h.75c.62,0,.77-.24.77-.67v-1.98Z"/>
        <path class="uuid-8e7799f3-dd4e-4fe6-8bf9-89a5768020ed" d="m128.4,122.69v3.92c0,.84-.52,1.69-2.08,1.69s-2.08-.85-2.08-1.69v-3.92h1.25v3.8c0,.45.21.7.84.7s.84-.26.84-.7v-3.8h1.25Z"/>
        <path class="uuid-8e7799f3-dd4e-4fe6-8bf9-89a5768020ed" d="m130.56,126.41c0,.48.16.76.77.76.4,0,.95-.05,1.43-.13l.17,1.09c-.55.12-1.05.17-1.6.17-1.39,0-2.02-.69-2.02-1.69v-2.31c0-1,.62-1.69,2.02-1.69.56,0,1.05.06,1.6.17l-.17,1.09c-.48-.08-1.03-.13-1.43-.13-.62,0-.77.28-.77.76v1.91Z"/>
        <polygon class="uuid-8e7799f3-dd4e-4fe6-8bf9-89a5768020ed" points="136.06 123.8 136.06 128.22 134.82 128.22 134.82 123.8 133.33 123.8 133.33 122.69 137.55 122.69 137.55 123.8 136.06 123.8"/>
        <rect class="uuid-8e7799f3-dd4e-4fe6-8bf9-89a5768020ed" x="138.23" y="122.69" width="1.25" height="5.53"/>
        <path class="uuid-8e7799f3-dd4e-4fe6-8bf9-89a5768020ed" d="m144.76,126.61c0,.84-.58,1.69-2.14,1.69s-2.14-.85-2.14-1.69v-2.31c0-.84.58-1.69,2.14-1.69s2.14.85,2.14,1.69v2.31Zm-1.24-2.2c0-.43-.27-.7-.9-.7s-.9.26-.9.7v2.09c0,.43.27.7.9.7s.9-.27.9-.7v-2.09Z"/>
        <polygon class="uuid-8e7799f3-dd4e-4fe6-8bf9-89a5768020ed" points="146.9 124.59 146.9 128.22 145.72 128.22 145.72 122.69 147.24 122.69 149.06 126.5 149.06 122.69 150.25 122.69 150.25 128.22 148.71 128.22 146.9 124.59"/>
        <path class="uuid-8e7799f3-dd4e-4fe6-8bf9-89a5768020ed" d="m152.95,128.31c-.64,0-1.31-.14-1.79-.36l.21-.96c.51.16,1.02.27,1.59.27.64,0,.76-.12.76-.59,0-.5-.02-.56-.93-.76-1.34-.29-1.54-.56-1.54-1.75,0-1.1.39-1.54,1.91-1.54.48,0,1.06.05,1.68.18l-.12,1.05c-.63-.11-1.04-.16-1.53-.16-.56,0-.68.1-.68.51,0,.53.02.54.9.75,1.49.36,1.57.65,1.57,1.74s-.36,1.64-2.02,1.64"/>
        <polygon class="uuid-8e7799f3-dd4e-4fe6-8bf9-89a5768020ed" points="160.39 128.22 158.61 128.22 157.05 122.69 158.33 122.69 159.5 127.09 160.67 122.69 161.95 122.69 160.39 128.22"/>
        <path class="uuid-8e7799f3-dd4e-4fe6-8bf9-89a5768020ed" d="m162.49,128.22v-5.53h3.48v1.1h-2.23v1.01h2.06v1.1h-2.06v1.2h2.23v1.1h-3.48Zm1.16-6.5c.41-.26.8-.51,1.13-.76l.45.7c-.4.28-.69.45-1.16.7l-.41-.63Z"/>
        <path class="uuid-8e7799f3-dd4e-4fe6-8bf9-89a5768020ed" d="m168.83,128.31c-1.35,0-2.02-.69-2.02-1.69v-2.31c0-1.02.68-1.69,2.02-1.69.64,0,1.29.08,1.77.17l-.15,1.09c-.48-.07-1.22-.13-1.62-.13-.62,0-.78.32-.78.76v1.9c0,.43.16.79.78.79.25,0,.41,0,.74-.05v-1.69h1.17v2.6c-.61.18-1.27.27-1.91.27"/>
        <path class="uuid-8e7799f3-dd4e-4fe6-8bf9-89a5768020ed" d="m171.78,128.22v-5.53h3.48v1.1h-2.23v1.01h2.06v1.1h-2.06v1.2h2.23v1.1h-3.48Zm1.16-6.5c.41-.26.81-.51,1.13-.76l.45.7c-.4.28-.69.45-1.16.7l-.41-.63Z"/>
        <polygon class="uuid-8e7799f3-dd4e-4fe6-8bf9-89a5768020ed" points="178.51 123.8 178.51 128.22 177.26 128.22 177.26 123.8 175.78 123.8 175.78 122.69 179.99 122.69 179.99 123.8 178.51 123.8"/>
        <path class="uuid-8e7799f3-dd4e-4fe6-8bf9-89a5768020ed" d="m184.81,128.22h-1.29l-.3-1.08h-1.85l-.3,1.08h-1.29l1.68-5.53h1.66l1.69,5.53Zm-3.16-2.12h1.27l-.63-2.32-.64,2.32Z"/>
        <polygon class="uuid-8e7799f3-dd4e-4fe6-8bf9-89a5768020ed" points="185.44 128.22 185.44 122.69 186.68 122.69 186.68 127.12 188.87 127.12 188.87 128.22 185.44 128.22"/>
        <polygon class="uuid-8e7799f3-dd4e-4fe6-8bf9-89a5768020ed" points="189.58 128.22 189.58 122.69 193.06 122.69 193.06 123.8 190.83 123.8 190.83 124.81 192.89 124.81 192.89 125.92 190.83 125.92 190.83 127.12 193.06 127.12 193.06 128.22 189.58 128.22"/>
        <path class="uuid-8e7799f3-dd4e-4fe6-8bf9-89a5768020ed" d="m195.63,128.31c-.64,0-1.31-.14-1.79-.36l.21-.96c.51.16,1.02.27,1.59.27.64,0,.76-.12.76-.59,0-.5-.02-.56-.93-.76-1.34-.29-1.54-.56-1.54-1.75,0-1.1.39-1.54,1.91-1.54.48,0,1.06.05,1.67.18l-.12,1.05c-.63-.11-1.04-.16-1.54-.16-.56,0-.68.1-.68.51,0,.53.02.54.9.75,1.49.36,1.57.65,1.57,1.74s-.36,1.64-2.02,1.64"/>
      </g>
    </g>
  </g>
</svg>