<svg xmlns="http://www.w3.org/2000/svg" xmlns:xlink="http://www.w3.org/1999/xlink" id="Layer_1" data-name="Layer 1" viewBox="36.27 741.9 1927.46 516.21">
  <defs>
    <style>
      .cls-1 {
        fill: #4ab8ff;
      }

      .cls-2 {
        fill: url(#linear-gradient-2);
      }

      .cls-2, .cls-3, .cls-4 {
        opacity: .99;
      }

      .cls-4 {
        fill: url(#linear-gradient);
      }
    </style>
    <linearGradient id="linear-gradient" x1="25.37" y1="1142.65" x2="478.16" y2="873.27" gradientUnits="userSpaceOnUse">
      <stop offset="0" stop-color="#4ab8ff"/>
      <stop offset="1" stop-color="#4ae7ff"/>
    </linearGradient>
    <linearGradient id="linear-gradient-2" x1="26.01" y1="1143.73" x2="478.8" y2="874.35" xlink:href="#linear-gradient"/>
  </defs>
  <g class="cls-3">
    <path class="cls-4" d="m336.95,1029.61c-.46-19.83-.46-39.68,0-59.51.15-6.35-1.63-10.83-5.6-14.37-18.8-10.76-37.56-21.57-56.15-32.67-6.64-3.96-12.05-4.94-18.99-.72-17.31,10.53-34.9,20.63-52.61,30.47-7.22,4.01-10.45,9.14-10.25,17.59.46,19.83.46,39.68,0,59.51-.2,8.44,3.02,13.59,10.24,17.6,17.72,9.83,35.33,19.88,52.63,30.43,6.97,4.25,12.36,3.22,18.99-.68,17.58-10.34,35.19-20.63,52.85-30.84,6.27-3.9,9.08-8.9,8.9-16.79Z"/>
    <path class="cls-2" d="m493.26,888.46c0-15.75-6.54-27.01-20.83-34.86-63.7-35.02-127.26-70.3-190.46-106.19-13.2-7.49-24.15-7.25-37.02.14-62.69,36.03-125.63,71.63-188.62,107.14-13.5,7.61-20.28,18-20.05,33.94.53,37.48.17,74.97.17,112.46h-.1c0,38.62.09,77.25-.05,115.87-.05,13.13,4.13,23.71,16.08,30.35,62.55,34.74,125.15,69.42,187.63,104.29,15.62,8.72,30.54,8.67,46.28-.08,62.56-34.74,125.3-69.14,188.05-103.53,12.94-7.09,19.02-17.67,19-32.33-.1-75.73-.05-151.47-.07-227.2Zm-113.89,128.6c7.37-4.16,10.26-9.18,10.16-17.52-.34-28.89-.2-57.79-.06-86.69.07-13.58,1.08-14.21,12.76-7.6,18.02,10.19,35.72,20.92,53.83,30.95,7.43,4.12,9.77,9.67,9.64,17.89-.4,25.01-.14,50.03-.14,75.04,0,24.58-.7,49.19.27,73.74.55,13.92-9.2,17.21-18.24,21.74-4.42,2.21-6.24-1.06-6.42-5.13-.18-3.87-.21-7.76-.21-11.64-.01-45.29-.36-90.58.24-135.85.15-11.39-3.13-18.49-13.46-23.65-8.89-4.44-12.57-3.72-12.43,6.92.23,17.68-.64,35.4.27,53.04.65,12.57-4.52,19.63-15.15,25.55-33.14,18.47-65.7,37.97-98.73,56.65-8.66,4.9-9.76,7.26-.48,13.4,10.88,7.19,19.45,7.19,30.55.22,23.35-14.67,47.59-27.93,71.54-41.65,10.44-5.98,12.46-4.9,12.58,7.24.21,21.56-.13,43.13.14,64.69.09,7.31-2.63,12.12-8.94,15.74-44.16,25.28-88.19,50.78-132.34,76.08-6.99,4-27-1.88-29.56-8.61-2.1-5.52,3.44-6.22,6.35-7.93,24.89-14.66,49.9-29.12,74.91-43.59,17.92-10.36,35.9-20.6,53.82-30.97,7.95-4.6,12.63-19.95,8.69-28.19-2.93-6.13-6.68-1.81-9.51-.23-16.55,9.27-33.18,18.45-49.27,28.49-8.87,5.54-16.13,5.03-24.97-.23-32.61-19.4-65.61-38.14-98.46-57.14-12.68-7.33-12.49-7.03-13.45,7.08-.77,11.35,3.03,18.11,13.25,23.64,25.03,13.53,49.29,28.45,74.05,42.49,8.86,5.02,9.35,8.91.17,14.08-19.53,11.01-38.89,22.34-58.22,33.71-5.01,2.95-9.38,2.95-14.46,0-44.39-25.75-88.91-51.26-133.28-77.02-8.17-4.74-12.36-19.88-8.46-28.47,3.16-6.95,7.3-2.15,10.47-.35,27.37,15.55,54.62,31.3,81.87,47.05,15.31,8.85,30.53,17.84,45.84,26.69,8.86,5.12,25.53,1.82,30.94-6.24,3.93-5.86-2.37-6.33-5.01-7.9-16.67-9.92-33.35-19.86-50.43-29.04-8.34-4.48-11.31-10.37-11.22-19.68.4-38.38.23-76.77.18-115.15-.02-14.36-.88-14.39-13.31-8.33-10.72,5.23-14.48,12.49-14.11,24.46.87,28.01.1,56.06.35,84.09.09,9.93-2.58,12.72-11.9,7.16-18.88-11.28-37.97-22.2-57.19-32.89-6.5-3.62-9.07-8.6-9.06-15.72.06-50.46-.05-100.92.1-151.38.03-8.69,12.29-20.92,20.9-21.15,8.27-.22,5.31,6.61,5.34,10.45.29,30.62.17,61.24.18,91.86,0,18.11-.07,36.23.04,54.34.06,9.7,10.07,20.8,19.51,22.11,6.82.94,5.36-4.27,5.4-7.64.2-19.41.47-38.82-.02-58.22-.24-9.37,3.24-14.76,11.5-19.39,34.6-19.4,68.68-39.72,103.2-59.27,9.03-5.11,7.58-7.33-.17-12.57-11.1-7.51-20.12-7.63-31.72-.23-22.88,14.59-46.83,27.51-70.42,41-11.45,6.55-12.8,5.78-12.9-7.67-.16-21.13.14-42.27-.12-63.4-.09-7.18,2.11-12.21,8.56-15.91,44.52-25.51,88.89-51.29,133.39-76.83,6.52-3.74,26.21,2.56,28.33,9.03,1.96,6.01-4.06,6.89-7.31,8.79-32.39,18.93-64.92,37.61-97.42,56.35-8.59,4.96-16.84,10.7-25.88,14.63-11.66,5.07-13.74,13.69-13.2,25.03.44,9.25,3.21,10.46,10.79,5.94,16.3-9.71,33.17-18.49,49.09-28.77,8.63-5.58,15-4.72,23.44.31,33.33,19.87,67.25,38.75,100.67,58.47,9.28,5.48,11.96,4.8,12.45-6.78.52-12.41-3.52-19.69-14.54-25.58-23.94-12.81-47.23-26.84-70.69-40.54-11.87-6.94-11.94-8.1-.64-14.82,18.16-10.8,36.61-21.12,54.75-31.94,6.38-3.81,11.74-3.12,17.99.53,42.85,24.96,85.87,49.62,128.81,74.42,4.06,2.35,9.18,4.06,10.42,9.09,1.75,7.09,4.12,15.97-.94,21.07-5.1,5.14-10.72-2.53-15.56-5.28-40.1-22.81-79.99-45.99-120-68.96-11.01-6.32-25.27-3.61-33.32,5.58-4.43,5.05.63,5.84,3.1,7.29,17.1,10.05,34.09,20.33,51.6,29.63,9.48,5.03,13.92,11.2,13.44,22.35-1.21,28.59-.71,57.2-.66,85.8,0,8.68.04,17.37.05,26.05.02,14.36.88,14.39,13.31,8.33l4.75-2.56Z"/>
  </g>
  <g>
    <path class="cls-1" d="m671.45,934.55c5.31,0,6.3,2.98,6.3,8.95s-.99,8.95-6.3,8.95h-17.41c-19.4,0-27.69,5.64-27.69,12.93v21.22h107.43c5.31,0,6.47,2.98,6.47,8.95s-1.16,8.95-6.47,8.95h-107.43v43.1c0,6.3-3.81,7.79-11.11,7.79s-10.94-1.49-10.94-7.79v-82.23c0-20.72,16.41-30.84,49.07-30.84h18.07Z"/>
    <path class="cls-1" d="m882.83,968.2v57.69c0,19.4-15.75,28.85-46.92,28.85h-39.62c-31.17,0-46.92-9.45-46.92-28.85v-57.69c0-6.3,3.48-7.79,10.61-7.79s10.44,1.49,10.44,7.79v57.69c0,6.8,7.96,12.1,26.53,12.1h38.3c18.57,0,26.53-5.31,26.53-12.1v-57.69c0-6.3,3.48-7.79,10.61-7.79s10.44,1.49,10.44,7.79Z"/>
    <path class="cls-1" d="m907.36,961.07v-19.4c0-6.3,3.48-7.79,10.44-7.79s10.61,1.49,10.61,7.79v19.4h34.98c4.97,0,5.97,2.98,5.97,8.46s-.99,8.29-5.97,8.29h-34.98v69.8c0,6.3-3.48,7.79-10.61,7.79s-10.44-1.49-10.44-7.79v-69.8h-9.45c-4.97,0-5.97-2.82-5.97-8.29s.99-8.46,5.97-8.46h9.45Z"/>
    <path class="cls-1" d="m1111.94,968.2v57.69c0,19.4-15.75,28.85-46.92,28.85h-39.62c-31.17,0-46.92-9.45-46.92-28.85v-57.69c0-6.3,3.48-7.79,10.61-7.79s10.44,1.49,10.44,7.79v57.69c0,6.8,7.96,12.1,26.53,12.1h38.3c18.57,0,26.53-5.31,26.53-12.1v-57.69c0-6.3,3.48-7.79,10.61-7.79s10.44,1.49,10.44,7.79Z"/>
    <path class="cls-1" d="m1182.06,961.07c4.97,0,5.97,2.98,5.97,8.46s-.99,8.29-5.97,8.29h-12.93c-16.41,0-21.88,4.31-21.88,11.94v57.86c0,6.3-3.48,7.79-10.61,7.79s-10.44-1.49-10.44-7.79v-57.86c0-19.07,15.25-28.68,42.94-28.68h12.93Z"/>
    <path class="cls-1" d="m1216.21,1017.44v8.45c0,6.63,7.96,12.1,26.53,12.1h19.07c4.97,0,5.97,2.82,5.97,8.29s-.99,8.46-5.97,8.46h-19.73c-31.17,0-46.92-9.62-46.92-28.85v-35.98c0-19.4,15.75-28.85,46.92-28.85h38.3c33.16,0,46.92,9.45,46.92,28.85v19.07c0,6.47-1.49,8.46-9.95,8.46h-101.13Zm0-16.41h90.02v-11.11c0-7.63-7.96-12.1-26.53-12.1h-36.97c-18.57,0-26.53,5.31-26.53,12.1v11.11Z"/>
    <path class="cls-1" d="m1470.52,952.45v95.16c0,6.3-3.81,7.79-11.11,7.79s-10.94-1.49-10.94-7.79v-95.16h-49.9c-5.31,0-6.47-2.98-6.47-8.95s1.16-8.95,6.47-8.95h122.02c5.31,0,6.47,2.98,6.47,8.95s-1.16,8.95-6.47,8.95h-50.07Z"/>
    <path class="cls-1" d="m1569,961.07h36.14c31.17,0,46.92,9.45,46.92,28.85v35.98c0,19.23-15.75,28.85-46.92,28.85h-36.14c-31.17,0-46.92-9.62-46.92-28.85v-35.98c0-19.4,15.75-28.85,46.92-28.85Zm62,28.85c0-6.8-7.96-12.1-26.53-12.1h-34.81c-18.57,0-26.53,5.31-26.53,12.1v35.98c0,6.63,7.96,12.1,26.53,12.1h34.81c18.57,0,26.53-5.47,26.53-12.1v-35.98Z"/>
    <path class="cls-1" d="m1711.57,961.07h36.14c31.17,0,46.92,9.45,46.92,28.85v35.98c0,19.23-15.75,28.85-46.92,28.85h-36.14c-31.17,0-46.92-9.62-46.92-28.85v-35.98c0-19.4,15.75-28.85,46.92-28.85Zm62,28.85c0-6.8-7.96-12.1-26.53-12.1h-34.81c-18.57,0-26.53,5.31-26.53,12.1v35.98c0,6.63,7.96,12.1,26.53,12.1h34.81c18.57,0,26.53-5.47,26.53-12.1v-35.98Z"/>
    <path class="cls-1" d="m1829.77,1047.61c0,6.3-3.48,7.79-10.61,7.79s-10.44-1.49-10.44-7.79v-105.94c0-6.3,3.48-7.79,10.44-7.79s10.61,1.49,10.61,7.79v105.94Z"/>
    <path class="cls-1" d="m1843.2,985.94c0-15.42,13.59-24.87,39.46-24.87h22.71c4.97,0,6.13,2.82,6.13,8.46s-1.16,8.29-6.13,8.29h-22.88c-12.43,0-18.4,3.15-18.4,8.29v4.31c0,5.14,5.97,8.46,19.23,8.46h36.64c31,0,43.77,9.28,43.77,25.2v5.31c0,15.92-13.59,25.36-46.92,25.36h-67.14c-4.97,0-6.13-2.82-6.13-8.46s1.16-8.29,6.13-8.29h70.29c17.74,0,22.55-3.15,22.55-8.29v-5.97c0-5.14-4.81-8.46-21.88-8.46h-37.14c-26.69,0-40.29-9.28-40.29-24.54v-4.81Z"/>
  </g>
</svg>