<svg xmlns="http://www.w3.org/2000/svg" viewBox="0 0 221.04 257.63"><defs><style>.cls-1{fill:#477e9e;}.cls-2{fill:#fff;}.cls-3{fill:#95b63f;}.cls-4{fill:#d67935;}</style></defs><title>paroledelus-logo</title><g id="Calque_2" data-name="Calque 2"><g id="Calque_1-2" data-name="Calque 1"><path id="_Tracé_" data-name="&lt;Tracé&gt;" class="cls-1" d="M63.05,217.58s-12,0-12-12V62.24s0-12,12-12h145s12,0,12,12V250.33s0,12-7.82,2.9L189.3,226.64s-7.81-9.06-19.78-9.06Z"/><g id="_Groupe_" data-name="&lt;Groupe&gt;"><path id="_Tracé_transparent_" data-name="&lt;Tracé transparent&gt;" class="cls-2" d="M157.82,186c.25,5.59,5,7.42,9.92,7.42s9.64-1.79,9.64-7.34c0-3.92-3.31-5.14-6.7-5.92s-6.57-1.06-6.57-3.14c0-1.72,1.92-2,3.22-2,2.09,0,3.8.61,4,2.85h5.51c-.45-5.18-4.69-6.73-9.3-6.73s-9.19,1.39-9.19,6.78c0,3.71,3.35,4.9,6.7,5.63,4.16.9,6.57,1.51,6.57,3.26,0,2-2.12,2.7-3.8,2.7-2.28,0-4.41-1-4.45-3.55Zm-3.38-14.25h-5.8V182.8c0,4.29-1.35,6-4.49,6-2.69,0-3.71-1.72-3.71-5.19V171.74h-5.8v13c0,5.23,1.55,8.69,7.71,8.69a7.52,7.52,0,0,0,6.45-3.51h.13v2.94h5.51Zm-30.17,21.1h5.8V163.7h-5.8ZM105.46,180a4.56,4.56,0,0,1,4.81-4.49c2.82,0,4.08,1.55,4.62,4.49Zm15.22,3.67c.41-6.49-3.06-12.53-10.24-12.53-6.41,0-10.78,4.82-10.78,11.14,0,6.54,4.13,11.1,10.78,11.1,4.77,0,8.24-2.12,9.88-7.1h-5.11c-.36,1.31-2.24,2.74-4.57,2.74-3.22,0-5-1.67-5.18-5.35Zm-3.22-20.37h-6.41l-3.92,5.8h4ZM89.91,170H92.6c0,2-.61,3.43-2.69,4.12v2.69A6.55,6.55,0,0,0,95.7,170V163.7H89.91ZM79.38,182.23c0,3.47-1.15,6.82-5,6.82-3.59,0-5.11-3.47-5.11-6.78,0-3.47,1.31-6.73,5.11-6.73s5,3.26,5,6.69m.08,10.61H85V163.7h-5.8v10.61h0a7.38,7.38,0,0,0-6.28-3.14c-6.21,0-9.35,5.27-9.35,10.94,0,5.84,3.1,11.3,9.47,11.3a7,7,0,0,0,6.41-3.26h.08Z"/><path id="_Tracé_transparent_2" data-name="&lt;Tracé transparent&gt;" class="cls-2" d="M188.08,143.76c.24,5.59,5,7.43,9.91,7.43s9.64-1.79,9.64-7.34c0-3.92-3.31-5.15-6.7-5.92s-6.57-1.06-6.57-3.15c0-1.71,1.92-2,3.23-2,2.08,0,3.79.62,3.95,2.86h5.51c-.45-5.18-4.69-6.73-9.3-6.73s-9.19,1.38-9.19,6.77c0,3.72,3.35,4.9,6.7,5.64,4.16.89,6.57,1.51,6.57,3.26,0,2-2.12,2.69-3.8,2.69-2.28,0-4.4-1-4.45-3.55Zm-17.64-6a4.57,4.57,0,0,1,4.82-4.49c2.81,0,4.08,1.55,4.61,4.49Zm15.23,3.68c.4-6.49-3.06-12.53-10.25-12.53-6.41,0-10.77,4.81-10.77,11.14,0,6.53,4.12,11.1,10.77,11.1,4.78,0,8.25-2.12,9.88-7.1h-5.1c-.37,1.31-2.25,2.74-4.57,2.74-3.23,0-5-1.68-5.19-5.35Zm-30.37,9.14h5.8V121.48h-5.8Zm-20-10.53c0-3.39,1.19-6.78,5.1-6.78s5.15,3.39,5.15,6.78-1.19,6.74-5.15,6.74-5.1-3.39-5.1-6.74m-5.79,0c0,6.69,4.28,11.1,10.89,11.1s10.94-4.41,10.94-11.1S147.1,129,140.44,129s-10.89,4.41-10.89,11.14m-14.5,10.53h5.8v-9.51c0-3.71,1.47-6.77,5.71-6.77a10.8,10.8,0,0,1,2.08.2v-5.39a4.43,4.43,0,0,0-1.26-.2,7.45,7.45,0,0,0-6.74,4.49h-.08v-3.92h-5.51ZM97.17,136c.21-2.29,1.63-3.19,3.84-3.19,2,0,3.75.37,3.75,2.86s-3.3,2.25-6.85,2.78-7.19,1.63-7.19,6.41c0,4.32,3.19,6.32,7.19,6.32a9.67,9.67,0,0,0,7.1-2.61,8.3,8.3,0,0,0,.41,2h5.87a10.82,10.82,0,0,1-.73-4.69V135c0-5.06-5.06-6-9.27-6-4.73,0-9.59,1.63-9.91,7.06Zm7.59,6.45c0,1.26-.16,4.85-4.69,4.85-1.88,0-3.55-.53-3.55-2.69s1.63-2.74,3.43-3.1,3.83-.37,4.81-1.23Zm-33.34-16h5c3,0,5.63.65,5.63,4.36s-2.65,4.37-5.63,4.37h-5ZM65,150.62h6.41V140.17h6.73c7.27,0,10.08-4.61,10.08-9.35s-2.81-9.34-10.08-9.34H65Z"/></g><path id="_Tracé_transparent_3" data-name="&lt;Tracé transparent&gt;" class="cls-2" d="M217.05,257.63c-1.58,0-3.42-1.24-5.58-3.74L188.54,227.3c-.07-.09-7.67-8.72-19-8.72H63.05c-.13,0-13-.15-13-13V62.24c0-.13.15-13,13-13h145c.13,0,13,.14,13,13V250.33c0,.62-.08,6-3,7.12A3,3,0,0,1,217.05,257.63ZM63.05,51.28c-4.55,0-7.77,1.82-9.57,5.43a13.84,13.84,0,0,0-1.4,5.53V205.61c0,4.55,1.83,7.78,5.44,9.58a14,14,0,0,0,5.53,1.39H169.52c12.28,0,20.21,9,20.54,9.41L213,252.58c2.81,3.25,4.07,3.11,4.39,3,1.14-.42,1.67-3.37,1.67-5.24V62.24c0-10.84-10.52-11-11-11Z"/><path id="_Tracé_2" data-name="&lt;Tracé&gt;" class="cls-3" d="M90.31,99.84s12,0,12-12V12s0-12-12-12H12S0,0,0,12V120.52s0,6,4,1.49l11.51-13.16s7.88-9,19.85-9Z"/><path id="_Tracé_3" data-name="&lt;Tracé&gt;" class="cls-4" d="M102.28,49.28h-40c-12.21,0-12.21,12.21-12.21,12.21V99.83h40s12.2.22,12.2-12Z"/></g></g></svg>